<?xml version="1.0" standalone="no"?>
<!DOCTYPE svg PUBLIC "-//W3C//DTD SVG 20010904//EN" "http://www.w3.org/TR/2001/REC-SVG-20010904/DTD/svg10.dtd">
<svg xmlns="http://www.w3.org/2000/svg" version="1.0" width="600.000000pt" height="600.000000pt" viewBox="0 0 600.000000 600.000000" preserveAspectRatio="xMidYMid meet">
<metadata>
Created by potrace 1.16, written by Peter Selinger 2001-2019
<meta name="Producer" content="Online-Convert"/></metadata>
<g transform="translate(0.000000,600.000000) scale(0.100000,-0.100000)" fill="#000000" stroke="none">
<path d="M2730 5994 c-254 -29 -467 -74 -665 -139 -330 -109 -618 -262 -910 -484 -129 -97 -429 -397 -526 -526 -330 -434 -521 -885 -606 -1425 -26 -166 -26 -674 0 -840 85 -540 276 -991 606 -1425 97 -129 397 -429 526 -526 434 -330 885 -521 1425 -606 166 -26 674 -26 840 0 540 85 991 276 1425 606 129 97 429 397 526 526 330 434 521 885 606 1425 14 92 18 175 18 420 0 245 -4 328 -18 420 -85 540 -276 991 -606 1425 -97 129 -397 429 -526 526 -427 324 -870 515 -1393 600 -102 17 -182 22 -407 24 -154 2 -296 1 -315 -1z m525 -1763 c114 -25 247 -72 349 -123 169 -85 276 -167 491 -378 158 -155 191 -182 260 -216 78 -39 80 -39 190 -38 110 1 110 1 679 157 314 86 571 155 573 153 8 -8 -752 -321 -1187 -488 -962 -369 -2684 -954 -3465 -1177 -477 -135 -902 -251 -921 -251 -19 1 35 24 512 224 605 252 576 240 627 275 138 95 192 215 216 481 39 413 172 736 405 978 220 229 481 365 801 417 121 19 349 13 470 -14z m960 -1371 c24 -5 51 -21 68 -40 23 -26 27 -39 27 -90 0 -104 -41 -265 -105 -411 -148 -338 -447 -601 -815 -717 -273 -87 -571 -84 -834 7 -272 94 -566 317 -566 428 0 27 10 45 47 84 26 27 69 66 95 86 l49 36 87 -85 c133 -129 250 -201 407 -251 195 -61 404 -61 600 0 381 120 643 414 710 798 8 48 15 105 15 126 l0 39 88 0 c48 0 105 -5 127 -10z m-450 -77 c-41 -288 -238 -530 -514 -631 -283 -103 -585 -47 -804 149 -50 45 -56 54 -42 62 13 7 26 0 59 -30 88 -84 187 -139 313 -175 101 -29 276 -31 373 -4 304 83 513 298 574 588 15 73 22 88 38 88 7 0 8 -17 3 -47z"/>
<path d="M2820 3905 c-303 -58 -562 -225 -716 -460 -131 -201 -183 -388 -199 -716 -9 -166 -3 -189 45 -189 33 0 220 48 234 61 4 4 1 36 -8 71 -51 209 -18 430 96 622 49 85 189 227 270 274 216 128 486 163 702 91 230 -76 394 -223 500 -447 16 -34 35 -62 42 -62 7 0 57 19 111 41 89 38 133 67 133 89 0 17 -143 190 -228 276 -182 183 -340 278 -562 335 -101 27 -318 34 -420 14z"/>
<path d="M2908 3659 c-345 -39 -624 -283 -705 -617 -22 -93 -22 -257 1 -350 10 -40 21 -74 25 -76 17 -11 462 130 946 299 220 78 547 203 559 215 11 11 -40 120 -92 198 -155 227 -456 363 -734 331z"/>
</g>
</svg>
