<?xml version="1.0" standalone="no"?>
<!DOCTYPE svg PUBLIC "-//W3C//DTD SVG 20010904//EN" "http://www.w3.org/TR/2001/REC-SVG-20010904/DTD/svg10.dtd">
<svg xmlns="http://www.w3.org/2000/svg" version="1.0" width="1200.000000pt" height="628.000000pt" viewBox="0 0 1200.000000 628.000000" preserveAspectRatio="xMidYMid meet">
<metadata>
Created by potrace 1.16, written by Peter Selinger 2001-2019
<meta name="Producer" content="Online-Convert"/></metadata>
<g transform="translate(0.000000,628.000000) scale(0.100000,-0.100000)" fill="#000000" stroke="none">
<path d="M0 3140 l0 -3140 6000 0 6000 0 0 3140 0 3140 -6000 0 -6000 0 0 -3140z m2681 2338 c3 -5 24 -7 45 -3 21 3 -11 -11 -72 -33 -124 -43 -135 -49 -132 -65 4 -26 -58 -106 -98 -126 -51 -26 -60 -26 -109 -1 -22 11 -45 20 -52 20 -7 0 -13 7 -13 16 0 13 -7 15 -32 10 -18 -3 -66 -9 -105 -12 -63 -6 -73 -4 -73 9 0 21 26 37 122 77 65 27 81 38 94 66 14 29 22 34 50 34 18 0 56 5 85 11 32 7 59 8 73 2 13 -6 47 -5 91 2 71 12 115 9 126 -7z m8569 -88 c45 -45 18 -120 -43 -120 -66 0 -93 78 -41 119 33 26 58 27 84 1z m-5127 -1570 c-25 -75 -24 -90 8 -90 10 0 19 -4 19 -10 0 -5 19 -14 43 -21 23 -6 51 -15 62 -21 11 -5 64 -10 117 -11 53 -1 91 -5 85 -9 -7 -4 -22 -8 -34 -8 -13 0 -23 -4 -23 -10 0 -5 -22 -8 -52 -5 -34 2 -55 -1 -60 -8 -6 -9 -10 -8 -17 2 -14 22 -38 6 -39 -28 0 -21 4 -31 14 -31 19 0 54 -31 54 -48 0 -9 7 -12 20 -9 18 5 26 -7 21 -35 -1 -11 13 -10 25 2 6 6 8 -4 6 -30 -4 -40 12 -56 22 -22 3 9 3 0 0 -20 -4 -30 -2 -38 11 -38 8 0 15 7 15 15 0 14 11 19 37 16 12 -2 93 156 93 180 0 6 7 23 14 37 27 49 96 202 96 212 0 6 5 10 10 10 6 0 10 6 10 14 0 8 4 18 10 21 6 4 6 -5 -1 -22 -6 -15 -24 -63 -39 -106 -25 -70 -26 -78 -11 -87 14 -8 13 -9 -6 -10 -17 0 -25 -9 -33 -40 -6 -21 -14 -42 -19 -44 -5 -3 -12 -18 -15 -33 -4 -16 -16 -53 -28 -83 -11 -30 -24 -64 -28 -75 -4 -11 -12 -32 -19 -47 -7 -18 -7 -28 -1 -28 6 0 15 11 20 25 11 29 24 34 15 6 -3 -11 -8 -29 -10 -40 -2 -12 -7 -26 -11 -32 -3 -6 0 -15 7 -20 11 -7 10 -9 -3 -9 -22 0 -24 -26 -3 -34 10 -3 17 3 21 19 3 14 10 25 15 25 6 0 5 -8 -1 -19 -5 -11 -10 -22 -10 -25 0 -12 49 -6 53 7 3 7 6 4 6 -7 1 -14 7 -17 26 -14 14 3 27 2 30 -1 2 -4 65 -7 139 -7 75 1 136 -2 136 -6 0 -3 9 -4 19 -1 14 3 33 43 72 145 51 133 94 221 68 138 -6 -19 -18 -50 -26 -68 -20 -45 -73 -193 -73 -203 0 -5 25 -8 55 -6 30 1 55 -1 55 -5 0 -5 -17 -9 -37 -9 -21 -1 -42 -2 -48 -4 -5 -1 -18 -3 -27 -3 -10 -1 -18 -9 -18 -17 0 -8 -5 -23 -10 -33 -6 -9 -29 -69 -51 -132 -23 -63 -50 -139 -61 -169 -10 -29 -17 -59 -14 -67 3 -7 -2 -15 -10 -18 -19 -7 -18 -26 1 -26 9 0 20 11 25 25 11 30 24 34 15 4 -6 -18 -4 -20 32 -14 80 11 108 18 119 26 6 5 19 7 28 3 9 -3 22 -2 29 4 6 5 19 9 27 9 42 0 96 24 112 50 10 15 18 23 18 16 0 -6 -4 -15 -10 -18 -24 -15 -8 -27 28 -20 20 4 34 4 30 0 -6 -7 -65 -23 -104 -29 -29 -4 -44 -15 -44 -31 0 -8 -5 -17 -11 -21 -8 -4 -9 0 -4 15 5 17 2 21 -14 21 -11 0 -22 -4 -26 -10 -3 -5 -12 -7 -20 -3 -9 3 -21 0 -29 -6 -8 -7 -18 -11 -22 -10 -5 1 -28 -2 -52 -6 -33 -6 -46 -14 -53 -31 -4 -13 -14 -24 -21 -24 -9 0 -9 3 0 12 18 18 15 28 -9 28 -13 0 -23 -10 -30 -30 -11 -30 -23 -38 -33 -21 -3 5 1 12 10 15 8 3 13 10 9 15 -11 19 -32 0 -45 -42 -8 -23 -18 -48 -24 -56 -8 -10 -6 -12 9 -9 11 2 19 10 18 19 -2 8 6 20 17 27 25 15 25 14 -5 -52 -24 -53 -45 -79 -45 -57 0 6 5 11 10 11 6 0 10 7 10 15 0 21 -29 19 -36 -2 -3 -10 -10 -26 -15 -35 -12 -24 -11 -28 6 -28 8 0 15 5 15 10 0 6 4 10 9 10 5 0 7 -9 4 -20 -8 -30 25 -26 37 4 9 26 30 44 30 27 0 -5 -5 -13 -10 -16 -6 -4 -8 -10 -5 -15 3 -5 -3 -18 -14 -29 -12 -12 -21 -15 -23 -9 -7 19 -38 0 -48 -29 -6 -16 -15 -36 -20 -45 -6 -10 -10 -20 -10 -23 0 -8 30 -6 30 3 0 4 10 18 21 32 19 24 20 24 9 2 -28 -56 16 -38 58 24 7 11 5 4 -3 -13 -17 -36 -10 -41 21 -18 10 8 29 15 41 15 12 0 24 4 28 10 3 5 12 7 20 3 9 -3 23 1 32 8 8 8 26 12 39 11 15 -2 28 4 36 17 15 24 30 28 22 7 -4 -11 0 -13 15 -9 12 3 21 10 21 15 0 6 6 8 13 5 6 -2 23 0 37 6 14 5 35 9 47 8 19 -2 33 19 103 163 44 90 80 168 80 171 0 4 17 44 39 88 21 45 56 126 77 179 21 54 40 96 42 94 1 -2 -13 -45 -33 -95 -82 -210 -86 -224 -73 -233 10 -6 9 -8 -4 -8 -16 0 -61 -84 -89 -166 -7 -22 -18 -46 -25 -54 -6 -8 -24 -39 -38 -68 l-27 -53 38 7 c21 4 48 11 61 15 29 11 32 11 32 1 0 -9 -101 -42 -128 -42 -10 0 -32 -24 -52 -56 -19 -30 -42 -63 -50 -72 -8 -9 -28 -35 -45 -57 -32 -43 -82 -95 -91 -95 -3 0 16 24 42 53 51 57 147 197 140 205 -3 2 -13 1 -23 -4 -10 -4 -25 -8 -35 -9 -9 -1 -25 -6 -35 -10 -10 -4 -29 -9 -42 -11 -13 -2 -27 -7 -30 -11 -3 -4 -12 -8 -18 -9 -7 -1 -19 -2 -27 -2 -8 -1 -18 -11 -21 -22 -3 -11 -11 -20 -17 -20 -6 0 -6 6 2 15 7 8 9 15 4 15 -21 0 -101 -33 -118 -48 -11 -9 -16 -11 -12 -4 14 23 -16 12 -45 -18 -24 -23 -29 -25 -24 -10 8 25 -7 26 -29 1 -10 -10 -25 -17 -35 -14 -12 3 -26 -6 -40 -26 -12 -17 -28 -31 -34 -30 -9 0 -8 2 1 6 6 2 12 12 12 21 0 10 -23 -7 -62 -46 -59 -58 -130 -111 -152 -112 -6 0 10 13 35 29 49 32 129 111 112 111 -6 0 -18 -7 -27 -15 -17 -17 -30 -20 -21 -5 8 13 -2 13 -28 -2 -12 -7 -26 -13 -32 -15 -45 -11 -105 -37 -105 -45 0 -5 -4 -7 -9 -4 -5 4 -22 0 -38 -8 -70 -36 -160 -75 -185 -81 -22 -6 -28 -4 -28 10 0 9 4 14 9 11 5 -4 22 0 38 8 15 8 40 19 56 25 60 24 76 34 70 45 -4 6 1 5 10 -2 14 -12 20 -10 41 11 14 14 27 20 29 14 2 -6 11 -3 23 9 10 10 26 18 35 16 9 -2 28 11 43 28 14 17 26 28 26 23 0 -5 -6 -15 -12 -22 -11 -10 -9 -11 7 -5 24 9 52 39 60 65 4 11 11 19 16 19 5 0 2 -11 -7 -25 -9 -14 -14 -28 -11 -32 9 -9 36 16 53 49 8 15 19 28 25 28 5 0 2 -15 -7 -32 -16 -31 -16 -32 0 -19 39 33 92 151 67 151 -6 0 -11 -9 -11 -19 0 -10 -7 -22 -16 -25 -12 -4 -14 -1 -9 14 8 26 -20 28 -34 3 -7 -12 -10 -14 -11 -4 0 9 -7 11 -22 6 -13 -3 -33 -7 -45 -9 -13 -1 -28 -7 -35 -14 -8 -8 -15 -8 -24 -1 -8 7 -16 5 -27 -5 -8 -8 -17 -13 -20 -10 -7 7 12 54 31 74 11 13 12 11 7 -11 -4 -17 -2 -30 5 -34 14 -8 32 14 26 31 -2 6 5 16 15 22 18 11 19 10 13 -13 -3 -14 -4 -25 -1 -25 17 0 37 14 37 26 0 8 6 23 13 34 10 17 9 22 -1 29 -11 6 -9 9 6 13 12 3 21 18 25 37 4 20 11 30 18 26 8 -5 8 -10 0 -18 -17 -17 -13 -37 8 -37 13 0 23 11 31 35 6 19 16 35 21 35 13 0 11 -17 -2 -26 -6 -3 -9 -15 -6 -25 3 -11 1 -19 -4 -19 -6 0 -17 -16 -25 -36 -8 -20 -18 -34 -20 -31 -3 3 -1 14 5 25 15 29 14 34 -10 30 -14 -2 -25 -16 -35 -43 -15 -45 -11 -54 16 -37 11 7 28 12 39 12 10 0 24 7 31 15 7 8 9 15 5 15 -4 0 -2 7 5 15 7 8 17 15 23 15 7 0 7 -4 -1 -12 -7 -7 -12 -18 -12 -25 0 -19 20 -16 26 5 3 9 10 25 15 35 13 24 4 34 -16 17 -24 -20 -29 -4 -11 34 19 40 36 55 36 32 0 -9 -4 -16 -10 -16 -5 0 -10 -4 -10 -10 0 -5 10 -10 21 -10 16 0 20 5 16 19 -3 12 1 22 9 25 8 3 14 12 14 21 0 18 -11 20 -27 4 -7 -7 -13 -7 -17 -1 -3 6 -2 13 4 17 17 10 11 25 -9 25 -12 0 -21 -9 -25 -24 -5 -19 -14 -25 -43 -28 -45 -6 -50 -3 -33 17 16 20 10 26 -19 18 -16 -4 -21 -11 -18 -24 3 -10 -2 -20 -9 -23 -11 -4 -13 1 -8 19 5 20 2 25 -14 25 -14 0 -24 -10 -32 -35 -6 -19 -16 -37 -21 -40 -5 -3 -6 1 -3 9 4 11 0 16 -15 16 -15 0 -26 -11 -37 -40 -9 -23 -19 -38 -22 -35 -3 3 0 15 5 28 15 29 34 89 30 93 -2 2 -13 1 -26 -3 -16 -4 -21 -11 -18 -24 5 -19 -18 -35 -28 -19 -4 6 -1 10 4 10 6 0 11 9 11 19 0 25 -32 21 -40 -5 -12 -38 -41 -96 -46 -91 -3 3 -1 14 5 25 17 31 13 44 -11 40 -16 -2 -24 -11 -26 -28 -2 -14 -8 -29 -13 -35 -17 -17 -10 -45 11 -45 11 0 20 7 20 15 0 8 4 15 8 15 5 0 8 -8 7 -17 -1 -21 -24 -63 -25 -47 0 7 -9 14 -20 17 -13 3 -21 -1 -26 -15 -7 -24 14 -42 32 -27 7 6 16 4 24 -6 10 -12 10 -15 0 -15 -7 0 -19 -8 -27 -17 -13 -17 -13 -17 -11 2 2 12 -4 21 -14 23 -17 3 -22 -8 -21 -46 1 -7 -12 -16 -28 -19 -37 -7 -61 -43 -29 -43 13 0 20 -5 17 -12 -2 -7 -14 -12 -25 -10 -21 3 -28 -11 -23 -42 1 -4 -3 -13 -8 -20 -14 -16 -41 -99 -35 -106 8 -7 35 31 29 40 -3 5 2 10 9 13 24 10 -8 -56 -33 -68 -12 -5 -24 -18 -27 -27 -3 -10 -14 -18 -24 -18 -14 0 -18 5 -13 16 3 9 0 20 -8 25 -25 16 -31 10 -23 -23 6 -31 6 -32 -12 -18 -11 8 -28 22 -39 32 -75 69 -88 78 -103 65 -13 -10 -14 -8 -8 10 9 28 -27 51 -50 32 -16 -13 -19 2 -4 17 7 7 4 16 -10 29 -19 17 -21 17 -38 2 -27 -24 -37 -21 -19 7 14 21 14 25 0 39 -15 15 -19 14 -45 -4 -15 -11 -28 -16 -28 -10 0 6 5 11 11 11 6 0 8 7 5 16 -3 8 -2 12 4 9 16 -10 12 11 -4 24 -16 14 -43 4 -66 -23 -7 -9 -17 -16 -23 -16 -5 0 0 9 13 20 13 11 20 26 17 34 -4 11 -1 13 11 9 16 -5 16 -4 1 11 -18 19 -53 11 -83 -19 -9 -10 -20 -15 -23 -11 -3 3 4 14 15 25 12 10 22 23 22 29 0 14 -41 27 -49 15 -10 -15 -77 -53 -92 -52 -8 0 -3 6 11 12 38 18 54 37 43 48 -11 11 -102 -24 -114 -43 -3 -5 -10 -9 -15 -9 -5 1 -27 -6 -49 -16 l-40 -16 28 -11 c15 -5 27 -13 27 -17 0 -14 -40 -5 -55 11 -16 18 -10 18 -208 -28 -20 -5 -40 -6 -42 -2 -3 4 12 11 33 15 20 4 66 16 101 28 55 18 61 22 46 33 -9 7 -24 10 -33 7 -10 -4 -13 -2 -8 5 10 17 41 15 56 -3 8 -10 23 -14 39 -12 40 7 101 39 101 54 0 7 7 10 18 6 14 -5 14 -3 -3 10 -17 13 -23 13 -54 -4 -20 -10 -41 -19 -48 -19 -6 0 -14 -6 -16 -12 -4 -10 -6 -10 -6 0 -1 8 13 19 29 25 17 6 30 17 30 24 0 7 6 13 14 13 19 0 67 40 61 51 -4 5 1 6 9 3 19 -7 21 7 4 24 -10 10 -10 15 2 22 8 5 11 10 6 10 -10 0 -54 -32 -96 -70 -26 -24 -80 -50 -102 -50 -7 0 5 10 27 21 22 12 42 25 43 30 2 5 10 9 18 9 8 0 14 5 14 10 0 6 6 10 13 10 7 0 18 9 25 21 11 17 11 24 0 37 -12 15 -11 16 5 3 24 -19 32 -8 9 12 -17 16 -20 15 -53 -13 -41 -35 -61 -40 -30 -7 15 16 19 30 14 43 -6 17 -5 18 13 5 14 -11 14 -9 -3 9 l-22 24 -19 -22 c-11 -12 -26 -22 -33 -22 -11 1 -11 3 2 13 24 19 29 44 12 59 -13 10 -17 10 -20 0 -3 -6 -9 -10 -14 -6 -5 3 -12 -2 -15 -10 -3 -9 -10 -16 -16 -16 -5 0 0 13 11 29 18 25 19 30 6 41 -8 6 -23 9 -35 5 -21 -7 -29 10 -7 18 7 2 0 10 -17 18 -26 12 -30 11 -47 -10 -11 -13 -19 -19 -19 -13 0 6 7 18 16 27 22 22 0 49 -32 41 -17 -5 -22 -3 -18 7 7 20 -24 43 -38 29 -18 -18 -32 -14 -18 3 11 13 10 18 -6 30 -17 12 -22 11 -49 -13 -16 -15 -32 -29 -35 -33 -3 -3 -34 -25 -70 -50 -36 -24 -66 -47 -68 -51 -2 -5 -9 -8 -16 -8 -7 0 -21 -8 -32 -18 -21 -19 -145 -75 -151 -68 -3 2 11 12 30 21 19 9 43 25 55 35 11 10 22 16 25 14 6 -6 135 79 182 121 82 71 86 76 71 91 -17 16 -36 19 -36 4 0 -5 -5 -10 -11 -10 -8 0 -7 5 1 15 11 13 10 18 -6 30 -10 8 -25 15 -31 15 -7 0 -13 4 -13 8 0 5 -16 17 -35 28 -19 10 -35 22 -35 26 0 5 -5 8 -10 8 -10 0 -67 36 -80 50 -3 3 -27 19 -55 35 -27 15 -52 31 -55 34 -11 14 -87 61 -97 61 -6 0 -16 7 -24 16 -7 8 -21 13 -31 11 -11 -3 -18 0 -18 9 0 8 -15 23 -32 34 -18 11 -29 20 -24 20 5 0 24 -9 42 -21 19 -11 38 -18 44 -14 5 3 10 0 10 -7 0 -12 128 -98 145 -98 4 0 30 -16 56 -35 27 -19 52 -35 55 -35 4 0 29 -16 55 -35 27 -19 51 -35 54 -35 3 0 28 -16 57 -36 43 -30 55 -35 70 -25 11 7 18 7 18 1 0 -5 -5 -10 -11 -10 -8 0 -8 -5 1 -15 7 -8 18 -15 25 -15 18 0 115 109 187 208 55 79 58 85 41 98 -10 7 -22 14 -26 14 -5 0 -5 5 -2 11 5 7 13 5 24 -5 10 -9 22 -16 27 -16 14 0 166 239 210 330 10 19 18 36 19 38 1 1 9 0 17 -3 12 -5 9 -12 -13 -37 -16 -16 -29 -34 -29 -38 0 -5 -29 -56 -65 -115 -36 -59 -65 -110 -65 -112 0 -2 -11 -19 -25 -37 -14 -18 -25 -35 -25 -38 0 -8 136 -88 149 -88 6 0 11 -4 11 -9 0 -17 34 -22 46 -7 6 9 15 16 20 16 4 0 3 -5 -4 -12 -18 -18 -14 -36 10 -44 15 -4 25 -1 34 10 8 11 14 13 19 7 3 -6 1 -11 -4 -11 -17 0 -13 -37 5 -44 9 -4 18 -5 19 -4 14 17 55 102 55 113 0 8 5 15 10 15 6 0 10 9 10 20 0 11 5 20 11 20 7 0 9 10 7 25 -3 14 -1 23 6 22 6 -1 11 8 10 21 0 12 5 22 13 22 7 0 13 7 13 15 0 8 -2 15 -4 15 -2 0 -11 3 -20 6 -11 4 -16 1 -16 -10 0 -27 -37 -83 -47 -72 -2 2 12 31 32 66 19 34 35 68 35 76 0 8 5 14 11 14 6 0 9 9 6 20 -3 13 0 20 9 20 8 0 14 4 14 9 0 14 -28 33 -40 26 -5 -3 -10 -1 -10 5 0 6 -23 21 -52 34 -31 14 -47 26 -40 30 7 4 12 2 12 -3 0 -6 11 -11 25 -11 14 0 25 -3 25 -8 0 -7 69 -32 90 -32 5 0 10 7 10 15 0 8 5 15 10 15 6 0 10 5 10 10 0 6 -8 10 -17 10 -13 0 -14 3 -6 11 6 6 32 11 57 11 38 -1 46 2 52 20 6 20 8 20 19 5 6 -9 15 -14 18 -10 4 3 8 -5 8 -18 1 -13 2 -32 3 -42 1 -24 27 -39 43 -26 9 8 12 0 10 -38 -1 -26 -6 -51 -12 -55 -5 -4 0 -17 13 -31 29 -31 29 -54 0 -51 -13 1 -38 3 -56 3 -20 1 -31 5 -27 11 9 15 -25 25 -45 12 -14 -9 -19 -6 -29 14 -13 29 -31 31 -38 4 -3 -11 -9 -20 -14 -20 -11 0 -31 -75 -29 -108 1 -15 1 -29 0 -32 -5 -16 -4 -80 3 -80 4 0 7 -7 7 -15 0 -15 5 -23 36 -58 14 -17 28 -50 25 -64 -1 -6 3 -14 9 -18 6 -4 7 1 3 12 -6 16 -5 16 10 5 20 -17 57 -6 57 16 0 10 -7 27 -15 39 -16 23 -11 53 9 53 8 0 11 -12 8 -34 -3 -27 1 -37 16 -45 17 -9 19 -8 15 9 -6 24 5 25 35 4 18 -12 26 -13 37 -4 11 9 23 9 44 2 20 -7 32 -7 40 1 17 17 14 106 -4 123 -17 17 -19 52 -5 74 7 11 10 7 10 -17 0 -35 14 -44 24 -17 4 9 13 14 21 10 9 -3 18 1 22 11 5 14 8 13 14 -5 9 -23 39 -31 39 -10 0 28 14 -6 15 -37 0 -18 4 -37 8 -41 13 -13 7 -24 -18 -34 -14 -5 -25 -14 -25 -20 0 -5 -7 -10 -15 -10 -8 0 -15 -7 -15 -15 0 -23 -34 -52 -61 -51 -30 1 -36 -26 -14 -60 11 -18 22 -23 36 -19 11 4 19 2 19 -4 0 -6 -6 -11 -14 -11 -13 0 -29 -48 -19 -62 5 -10 67 -10 77 -1 4 4 24 6 44 5 52 -4 100 19 176 83 83 70 89 82 69 124 -13 27 -20 31 -40 26 -16 -4 -23 -1 -23 10 0 8 -5 15 -12 15 -19 0 -48 -31 -48 -52 0 -15 -3 -16 -19 -6 -27 17 -35 54 -16 81 l15 21 0 -22 c0 -24 11 -27 41 -12 21 12 24 45 6 75 -15 24 -37 30 -37 10 0 -40 -29 0 -34 45 -1 16 -35 19 -73 6 -18 -6 -23 -4 -23 9 0 9 -4 13 -10 10 -6 -4 -10 10 -10 36 0 37 -2 41 -21 36 -15 -4 -18 -2 -10 6 5 7 12 36 16 66 4 41 3 52 -7 49 -8 -4 -14 3 -14 19 -1 13 -9 30 -18 36 -13 10 -6 13 41 15 60 3 73 -5 73 -44 0 -14 8 -24 21 -27 16 -4 20 -11 16 -27 -3 -12 -1 -34 5 -49 6 -14 12 -45 13 -69 2 -24 11 -52 20 -62 19 -21 55 -27 55 -10 0 6 3 9 8 9 25 -4 42 3 42 18 0 9 3 13 7 10 3 -4 12 -2 18 3 20 17 42 -17 27 -40 -6 -11 -9 -26 -6 -35 4 -8 1 -21 -5 -29 -14 -17 -5 -43 21 -57 41 -22 76 49 57 116 -5 16 -12 54 -14 83 -7 65 -20 101 -41 109 -25 9 -41 -13 -26 -37 19 -31 14 -38 -9 -11 -19 23 -34 22 -34 -2 0 -24 -19 -21 -26 5 -5 21 -3 27 14 32 17 4 18 8 8 20 -13 16 -81 19 -81 4 0 -22 -28 -4 -42 27 -16 36 -14 46 6 21 15 -20 52 -25 48 -8 -1 8 1 12 5 10 79 -40 121 -45 75 -8 -13 11 -18 21 -12 25 17 10 11 19 -20 33 -16 8 -52 35 -79 62 -36 35 -52 45 -60 37 -8 -8 -11 -7 -11 5 0 23 -26 42 -33 24 -3 -8 -1 -17 6 -20 7 -4 -5 -4 -25 -2 -21 3 -38 1 -38 -5 0 -5 -7 -9 -15 -9 -8 0 -25 -6 -36 -12 -17 -10 -23 -10 -26 0 -6 14 -49 16 -58 2 -4 -6 -10 -8 -15 -5 -5 3 -21 -2 -35 -11 -35 -23 -42 -12 -11 19 14 15 26 22 26 17 0 -17 37 -11 44 6 4 12 13 14 32 10 17 -5 35 -1 50 9 13 8 24 12 24 7 0 -4 8 -8 19 -9 13 -1 26 12 41 42 22 44 21 65 -5 65 -8 0 -25 11 -39 25 -31 31 -28 31 29 0 l46 -26 14 36 c8 19 22 51 29 70 25 59 24 39 -1 -35z m-5046 -1203 c23 -43 55 -94 71 -115 16 -20 45 -59 66 -87 228 -304 718 -630 1306 -867 286 -115 796 -274 1055 -328 55 -12 161 -34 235 -50 164 -36 440 -83 610 -105 69 -8 154 -20 190 -25 63 -9 108 -14 425 -45 83 -8 263 -19 400 -25 326 -15 384 -32 85 -24 -124 3 -243 7 -265 9 -22 2 -98 9 -170 15 -237 19 -489 44 -540 54 -16 3 -68 10 -115 16 -47 6 -110 15 -140 20 -30 5 -82 14 -115 19 -124 20 -443 83 -525 102 -224 53 -236 57 -455 118 -516 147 -957 331 -1337 558 -334 200 -606 452 -765 708 -30 47 -102 202 -108 230 -3 17 7 1 22 -35 15 -36 47 -100 70 -143z"/>
<path d="M5123 3165 c-10 -14 -30 -40 -45 -58 -15 -18 -28 -36 -28 -40 0 -5 -6 -14 -12 -21 -7 -7 -28 -31 -46 -54 -18 -22 -44 -53 -58 -69 -29 -33 -26 -49 8 -46 20 1 25 -2 21 -17 -6 -23 32 -37 52 -20 17 14 20 -1 4 -17 -17 -17 27 -38 47 -22 8 6 18 8 22 4 4 -4 1 -10 -5 -12 -19 -7 -16 -21 7 -33 17 -9 25 -6 46 15 34 34 39 32 12 -6 -22 -30 -22 -31 -4 -44 22 -17 44 -6 72 36 10 16 22 29 26 29 5 0 -8 -22 -27 -48 -26 -37 -32 -51 -23 -60 15 -15 41 -16 32 0 -4 6 -3 8 3 5 6 -4 21 9 34 28 24 35 39 44 39 25 0 -5 -4 -10 -8 -10 -12 0 -42 -56 -34 -65 4 -5 1 -5 -5 -1 -18 10 -16 -9 1 -23 11 -9 19 -9 33 0 29 17 96 118 89 134 -3 8 0 12 7 9 13 -4 50 53 42 66 -3 4 2 10 10 14 8 3 15 10 15 16 0 6 7 18 15 27 8 8 12 19 9 25 -4 6 -1 14 7 18 10 7 10 11 0 24 -15 18 -31 21 -31 5 0 -6 -7 -17 -16 -26 -8 -9 -13 -21 -11 -28 3 -6 -1 -12 -9 -12 -7 0 -15 6 -18 14 -3 7 0 12 7 10 6 -1 13 8 15 21 2 12 8 22 13 22 15 0 10 27 -7 34 -24 9 -34 7 -34 -6 -1 -7 -12 -26 -26 -43 l-26 -30 27 49 c24 46 25 49 8 61 -15 11 -21 11 -35 -2 -20 -18 -25 -4 -6 15 8 8 4 14 -18 24 -16 7 -31 15 -34 18 -7 8 -57 42 -102 69 l-37 22 -18 -26z"/>
<path d="M6456 3133 c-12 -24 -14 -39 -7 -46 7 -7 5 -14 -6 -22 -9 -7 -13 -17 -9 -24 9 -15 36 4 36 25 0 7 5 16 11 20 13 8 2 -55 -12 -70 -5 -6 -9 -18 -9 -29 0 -10 -7 -25 -15 -34 -18 -18 -11 -33 16 -33 14 0 21 9 26 30 3 17 10 33 16 37 7 4 8 -2 3 -18 -5 -13 -8 -32 -9 -41 -1 -10 -5 -18 -9 -18 -4 0 -11 -15 -16 -32 -7 -30 -12 -33 -40 -30 -27 3 -32 0 -32 -17 0 -23 35 -30 43 -8 3 6 6 2 6 -10 1 -12 -3 -25 -9 -28 -5 -3 -10 -13 -10 -21 0 -26 43 -12 50 15 3 14 12 27 20 29 12 4 13 2 3 -9 -7 -7 -13 -23 -13 -35 0 -13 -5 -26 -11 -30 -6 -3 -9 -16 -7 -28 3 -12 -2 -28 -10 -35 -10 -10 -11 -16 -3 -24 12 -12 31 1 35 24 1 8 8 24 14 37 7 12 11 26 9 30 -3 4 1 13 9 20 8 7 14 8 14 2 0 -17 38 -11 50 8 9 15 10 14 8 -8 -2 -20 -8 -24 -26 -22 -30 4 -54 -16 -47 -39 4 -11 2 -19 -4 -19 -6 0 -11 -7 -11 -15 0 -9 9 -15 21 -15 18 0 20 4 15 26 -4 16 -3 23 3 20 5 -4 15 2 21 11 10 17 11 16 7 -2 -3 -11 -8 -28 -12 -37 -5 -14 -2 -18 14 -18 12 0 23 6 25 13 13 43 16 46 32 40 15 -5 15 -7 0 -15 -22 -12 -20 -28 3 -28 12 0 23 11 30 32 6 17 14 29 17 25 3 -3 1 -15 -6 -26 -9 -18 -8 -21 10 -21 12 0 24 9 30 24 5 13 14 27 19 31 14 8 14 -8 0 -22 -8 -8 -8 -13 0 -17 16 -10 33 3 27 20 -3 7 1 17 8 21 7 5 37 69 65 143 29 74 66 168 81 208 l29 73 -112 -1 c-62 0 -147 2 -189 5 -73 5 -78 4 -78 -14 0 -11 -5 -23 -11 -27 -8 -4 -9 2 -5 22 6 28 5 29 -37 31 -41 1 -45 -1 -61 -34z"/>
<path d="M5504 2946 c-3 -8 -3 -20 1 -25 3 -6 0 -9 -7 -6 -8 3 -21 -9 -33 -31 -16 -30 -17 -37 -4 -46 11 -8 10 -9 -4 -4 -13 4 -20 0 -24 -14 -3 -11 -9 -20 -14 -20 -5 0 -9 -5 -9 -10 0 -6 -22 -41 -50 -79 -27 -38 -50 -74 -50 -80 0 -6 -5 -11 -11 -11 -6 0 -4 -7 5 -15 20 -21 29 -19 56 10 30 32 39 24 11 -11 -24 -31 -28 -52 -6 -34 12 10 18 10 29 1 17 -14 32 2 20 21 -5 7 -3 8 5 4 8 -5 14 0 18 13 3 12 9 21 13 21 11 0 60 88 60 106 0 8 4 14 9 14 5 0 22 25 37 56 27 55 27 57 9 70 -25 19 -44 1 -28 -25 10 -16 9 -18 -6 -14 -15 4 -25 -8 -47 -54 -15 -32 -31 -60 -34 -63 -4 -3 -15 -20 -25 -37 -19 -32 -35 -43 -35 -23 0 6 5 10 10 10 6 0 10 5 10 11 0 6 11 25 25 43 14 18 25 38 25 43 0 6 7 16 15 23 9 7 13 15 10 18 -3 3 2 14 12 24 9 10 12 18 8 18 -4 0 0 9 10 20 9 10 15 26 12 35 -4 8 -1 14 5 12 20 -4 18 18 -2 31 -17 10 -21 10 -26 -2z"/>
<path d="M5862 2666 c4 -18 0 -26 -15 -30 -14 -3 -18 -11 -14 -25 3 -12 2 -21 -2 -21 -4 0 -15 -19 -25 -42 -9 -24 -22 -51 -27 -61 -6 -10 -7 -26 -4 -35 3 -13 -1 -18 -15 -18 -20 0 -28 20 -11 30 5 3 21 35 37 72 23 55 25 67 13 75 -23 14 -39 10 -39 -9 0 -10 6 -24 13 -32 10 -12 9 -12 -5 -1 -14 10 -18 9 -28 -10 -10 -17 -9 -23 1 -30 11 -7 10 -9 -3 -9 -20 0 -53 -63 -42 -82 4 -7 4 -10 -1 -6 -10 10 -37 -11 -29 -23 3 -5 0 -9 -5 -9 -15 0 -14 -23 3 -46 12 -15 17 -17 27 -7 10 10 9 16 -7 28 -18 15 -18 15 9 9 23 -5 27 -3 27 15 0 12 5 21 10 21 15 0 1 -52 -17 -67 -10 -7 -12 -20 -8 -35 4 -16 3 -19 -3 -9 -6 8 -12 9 -16 3 -3 -5 4 -18 16 -28 15 -14 22 -16 25 -6 3 6 9 12 15 12 6 0 7 -7 4 -16 -4 -10 1 -25 10 -35 21 -23 34 -24 34 -4 0 8 5 15 10 15 14 0 12 -28 -2 -33 -9 -3 -8 -10 6 -26 22 -25 36 -27 36 -6 0 8 5 15 11 15 7 0 9 -9 5 -23 -4 -18 4 -32 39 -65 25 -23 47 -42 50 -42 3 0 11 15 19 33 12 26 15 28 15 10 1 -31 18 -37 31 -12 14 25 5 53 -14 46 -19 -8 -27 15 -11 30 10 9 14 8 18 -8 7 -26 23 -24 30 3 7 26 1 38 -19 38 -16 0 -18 9 -4 30 8 13 10 12 10 -2 0 -22 13 -23 30 -3 16 19 5 49 -15 41 -9 -3 -15 0 -15 10 0 10 7 13 24 8 16 -4 25 -1 30 11 10 26 -5 41 -21 20 -12 -18 -13 -18 -13 2 0 24 -27 38 -44 24 -8 -6 -15 -2 -22 14 -10 20 -9 23 12 21 13 0 24 -5 24 -9 0 -5 10 -7 23 -5 14 2 23 11 25 27 3 21 0 23 -22 19 -15 -3 -27 0 -30 8 -3 8 -14 14 -25 14 -15 0 -24 -13 -36 -52 -19 -56 -35 -83 -35 -56 0 9 -9 18 -21 21 -15 4 -25 -2 -40 -26 -10 -18 -19 -26 -19 -19 0 7 6 21 12 32 10 16 10 24 -1 43 -13 20 -13 21 2 9 13 -11 17 -10 28 9 10 19 9 25 -7 36 -26 19 -28 17 -48 -28 -15 -34 -16 -43 -5 -50 10 -6 8 -9 -8 -9 -13 0 -24 -8 -28 -21 -4 -11 -9 -18 -12 -16 -2 3 0 14 6 26 8 14 8 22 -1 27 -8 5 -5 10 8 15 12 4 28 31 42 70 13 35 30 76 37 90 11 20 12 29 2 39 -9 10 -9 11 0 6 14 -8 37 29 28 44 -3 6 -2 10 3 10 17 0 21 38 5 44 -27 11 -35 6 -31 -18z"/>
<path d="M5915 2649 c-5 -13 -2 -25 6 -31 11 -8 10 -8 -4 -4 -13 4 -19 -1 -24 -24 -3 -17 -10 -33 -14 -36 -11 -6 -12 -41 -1 -47 4 -2 1 -2 -5 -1 -7 2 -18 -6 -24 -18 -9 -18 -8 -24 6 -35 14 -9 22 -10 32 -2 10 9 13 7 13 -9 0 -12 -4 -24 -10 -27 -16 -10 -12 -42 7 -49 24 -10 40 10 26 33 -10 15 -9 18 5 17 12 -1 17 7 17 25 0 15 7 32 17 38 14 8 16 8 12 -3 -3 -8 3 -19 15 -25 24 -13 30 -4 52 72 10 36 17 46 29 41 30 -12 45 -9 48 12 4 27 -26 41 -35 17 -5 -14 -8 -13 -15 6 -10 27 -41 25 -47 -4 -2 -11 -10 -29 -18 -40 -11 -14 -14 -15 -10 -4 3 9 0 22 -6 28 -8 8 -7 11 5 11 16 0 31 34 20 44 -3 3 -14 6 -24 6 -17 0 -20 -4 -22 -32 -1 -15 -25 -42 -31 -36 -2 2 2 17 10 32 19 36 19 52 -1 60 -22 8 -22 8 -29 -15z"/>
</g>
</svg>
