<?xml version="1.0" standalone="no"?>
<!DOCTYPE svg PUBLIC "-//W3C//DTD SVG 20010904//EN" "http://www.w3.org/TR/2001/REC-SVG-20010904/DTD/svg10.dtd">
<svg xmlns="http://www.w3.org/2000/svg" version="1.0" width="980.000000pt" height="980.000000pt" viewBox="0 0 980.000000 980.000000" preserveAspectRatio="xMidYMid meet">
<metadata>
Created by potrace 1.16, written by Peter Selinger 2001-2019
<meta name="Producer" content="Online-Convert"/></metadata>
<g transform="translate(0.000000,980.000000) scale(0.100000,-0.100000)" fill="#000000" stroke="none">
<path d="M4890 9033 c-810 -61 -1560 -341 -2205 -824 -320 -239 -626 -550 -868 -882 -292 -400 -523 -886 -648 -1366 l-42 -161 -74 -40 c-41 -22 -102 -61 -136 -87 -464 -357 -562 -1002 -227 -1487 97 -140 272 -287 424 -356 60 -28 66 -33 76 -72 72 -270 232 -650 390 -924 195 -339 413 -617 711 -909 509 -498 1138 -851 1839 -1034 385 -100 721 -138 1140 -128 340 8 581 39 895 117 414 102 836 281 1203 509 408 254 816 627 1106 1010 335 442 572 936 712 1479 25 97 44 195 44 225 0 159 -175 235 -286 124 -39 -40 -42 -49 -78 -200 -366 -1540 -1641 -2687 -3214 -2892 -374 -49 -818 -35 -1192 36 -1138 218 -2116 943 -2653 1969 -114 218 -258 577 -234 585 7 2 53 6 102 9 246 16 506 142 688 336 356 377 394 953 91 1375 -204 284 -540 454 -897 455 -56 0 -57 -15 10 190 453 1377 1676 2387 3119 2575 174 22 446 35 614 29 139 -5 147 -4 184 18 50 29 76 65 85 114 17 97 -39 182 -135 204 -36 9 -441 11 -544 3z m-3172 -3499 c283 -58 503 -271 573 -554 31 -123 24 -281 -18 -403 -43 -123 -85 -189 -183 -287 -145 -146 -305 -212 -515 -213 -84 0 -129 5 -189 22 -271 75 -480 298 -535 569 -15 75 -13 225 4 307 27 125 102 261 197 356 175 175 429 252 666 203z"/>
<path d="M6278 8840 c-52 -28 -81 -73 -86 -137 -8 -96 40 -157 150 -192 72 -22 231 -82 362 -136 99 -41 141 -42 203 -4 72 45 98 161 53 234 -27 44 -73 71 -230 133 -308 123 -381 139 -452 102z"/>
<path d="M7570 8169 c-32 -13 -68 -47 -86 -81 -18 -35 -18 -121 1 -158 8 -15 61 -68 117 -115 57 -48 149 -131 205 -185 80 -76 113 -100 148 -110 109 -30 215 50 215 163 0 26 -6 60 -14 75 -31 59 -361 363 -438 403 -40 20 -107 24 -148 8z"/>
<path d="M6176 8070 c-103 -26 -239 -99 -317 -169 l-62 -56 -131 22 c-632 105 -1295 3 -1863 -288 -298 -153 -538 -329 -774 -569 -228 -232 -399 -474 -550 -775 -106 -212 -115 -252 -77 -324 40 -78 113 -110 197 -89 56 14 100 59 130 133 78 197 265 494 430 687 230 267 492 470 816 634 272 137 507 211 825 261 198 30 667 23 816 -13 19 -5 20 -9 11 -62 -34 -209 49 -455 207 -614 281 -284 741 -287 1027 -8 47 46 65 58 77 51 28 -15 244 -241 316 -331 239 -299 428 -690 511 -1056 53 -236 60 -310 60 -609 -1 -244 -3 -297 -23 -409 -53 -305 -132 -543 -268 -806 -135 -261 -278 -455 -494 -670 -406 -404 -909 -656 -1490 -745 -148 -23 -448 -31 -606 -16 -351 33 -655 121 -973 280 -510 256 -927 676 -1190 1199 -44 87 -73 116 -133 133 -49 13 -91 5 -140 -27 -48 -31 -72 -76 -72 -139 0 -56 54 -171 160 -346 211 -348 503 -663 833 -896 1020 -724 2355 -749 3396 -64 660 435 1126 1118 1289 1889 147 694 40 1440 -291 2047 -175 319 -382 581 -652 822 l-94 84 -2 132 c-2 148 -15 206 -70 321 -89 181 -266 328 -460 382 -95 26 -273 28 -369 4z m259 -335 c21 -4 57 -16 80 -27 140 -72 217 -195 217 -351 0 -69 -5 -87 -35 -150 -85 -178 -266 -263 -454 -212 -102 28 -183 97 -239 205 -26 50 -28 64 -29 160 0 103 1 106 39 178 60 113 159 184 280 202 51 8 66 7 141 -5z"/>
<path d="M8512 7069 c-55 -27 -92 -88 -92 -151 0 -33 10 -62 35 -109 20 -35 76 -145 126 -245 49 -99 102 -192 117 -207 15 -14 47 -31 72 -38 124 -32 236 77 208 204 -10 48 -173 379 -231 469 -60 94 -145 121 -235 77z"/>
<path d="M4975 6074 c-440 -77 -798 -386 -935 -804 -114 -347 -60 -727 146 -1037 104 -156 276 -308 447 -394 290 -147 649 -169 947 -58 285 106 533 331 665 604 93 194 144 487 101 589 -47 112 -217 129 -293 29 -21 -28 -27 -50 -35 -131 -35 -382 -243 -657 -586 -775 -76 -26 -105 -30 -227 -35 -122 -4 -152 -1 -228 18 -275 68 -487 253 -590 512 -46 113 -60 207 -54 348 7 186 58 326 173 477 147 192 350 300 607 323 113 11 148 22 183 62 33 36 46 66 46 111 -1 77 -29 125 -94 158 -45 23 -153 24 -273 3z"/>
<path d="M9014 5711 c-44 -20 -80 -63 -94 -112 -6 -21 -3 -75 10 -167 10 -76 23 -199 29 -275 11 -153 22 -185 80 -224 70 -47 150 -42 211 13 55 50 64 86 56 218 -9 136 -43 410 -56 452 -13 39 -54 78 -102 98 -49 21 -84 20 -134 -3z"/>
</g>
</svg>
