<svg width="198" height="198" viewBox="0 0 198 198" fill="none" xmlns="http://www.w3.org/2000/svg">
<mask id="mask0_134_977" style="mask-type:luminance" maskUnits="userSpaceOnUse" x="1" y="1" width="197" height="196">
<path d="M193.145 71.2356C194.462 75.8285 195.484 80.5012 196.203 85.2248C196.864 90.3303 197.191 95.4736 197.181 100.622C196.816 120.347 190.485 139.498 179.024 155.556C176.363 159.345 173.422 162.929 170.226 166.279C167.199 169.48 163.95 172.464 160.504 175.209C153.888 180.473 146.625 184.867 138.893 188.285C131.777 191.167 130.293 191.761 127.004 192.618C125.19 193.102 122.792 193.839 120.945 194.202C117.326 194.895 112.476 195.775 108.847 196.149C100.182 196.985 91.4447 196.648 82.8702 195.148C78.2502 194.347 73.693 193.218 69.2329 191.772C64.4193 190.196 59.7319 188.258 55.2107 185.976C53.3631 184.997 50.8996 183.699 49.1179 182.599C46.6874 181.093 43.465 179.014 41.1885 177.287C36.3977 173.708 31.9368 169.707 27.8592 165.333C26.3195 163.661 24.3069 161.396 22.9432 159.592C20.8316 156.799 18.1481 152.993 16.2785 150.035C13.6076 145.485 11.2237 140.772 9.14094 135.925C8.67904 134.825 8.27205 133.615 7.90913 132.427C-1.54898 100.534 31.8734 59.655 82.3973 41.2116C31.8734 59.655 -1.54898 100.6 7.90913 132.427C8.27205 133.615 8.67904 134.781 9.14094 135.925C7.75522 132.427 5.66563 126.236 5.21472 124.289C4.68683 121.968 3.85096 118.911 3.46604 116.591C2.89415 113.126 2.36627 108.474 2.03634 104.988C1.74478 101.358 1.72273 97.7113 1.97035 94.0781C2.32521 89.0818 2.94193 84.1077 3.81798 79.176C4.42175 75.9873 5.23736 72.8422 6.25946 69.7619C6.97431 67.7273 7.85414 64.9889 8.66798 62.9983C9.65778 60.5568 11.0435 57.3344 12.2643 55.0139C14.4843 50.5794 17.0589 46.3314 19.9627 42.3114C22.637 38.5326 25.5772 34.9493 28.761 31.5886C31.7811 28.3797 35.0343 25.3985 38.494 22.6693C41.8156 20.0158 45.3055 17.5802 48.9419 15.3778C52.5223 13.1896 56.2525 11.2565 60.1047 9.59296C61.8644 8.8781 64.1849 7.82232 65.9885 7.22843C73.687 4.68794 74.3139 4.47899 78.0861 3.67615C81.8583 2.87331 86.5544 2.19144 90.1837 1.72953C92.0533 1.48758 94.5828 1.4436 96.4745 1.32262C100.736 1.19693 105.001 1.34753 109.243 1.77352C113.69 2.21142 118.1 2.96484 122.44 4.02807C127.088 5.143 131.644 6.6137 136.067 8.42719C149.412 13.7933 161.399 22.0575 171.161 32.6224C172.678 34.294 174.702 36.5486 176.077 38.3632C178.484 41.4153 180.709 44.6065 182.741 47.9203C185.084 52.0445 187.943 57.6973 189.868 62.0305C191.119 65.0399 192.213 68.1124 193.145 71.2356Z" fill="white"/>
</mask>
<g mask="url(#mask0_134_977)">
<path d="M87.0604 178.079C51.0756 178.079 19.2259 161.231 7.51327 132.57C-2.01083 100.501 31.4995 59.38 82.2433 40.8597L82.5843 40.7388L82.7162 41.0687C98.773 80.3858 119.537 138.278 128.995 170.139L129.094 170.48L128.764 170.59C115.408 175.506 101.293 178.041 87.0604 178.079ZM82.1334 41.7066C31.9724 60.1499 -1.16398 100.754 8.21714 132.339C24.142 171.349 77.8992 188.23 128.093 170.04C118.679 138.201 98.1022 80.8368 82.1334 41.6846V41.7066Z" stroke="#A0A0A0" stroke-width="0.109978" stroke-miterlimit="10"/>
<path d="M78.4161 89.1841C60.2037 89.1841 44.059 80.6498 38.1312 66.0887L38.813 65.8027C46.8414 85.4448 73.94 93.9021 99.2349 84.675L99.4989 85.3678C92.7486 87.8632 85.6128 89.1549 78.4161 89.1841Z" stroke="#A0A0A0" stroke-width="0.109978" stroke-miterlimit="10"/>
<path d="M80.1097 138.179C49.0299 138.179 21.5025 123.629 11.3955 98.8621L12.0773 98.5762C25.8686 132.328 72.4113 146.879 115.842 131.02L116.095 131.724C104.568 135.957 92.3893 138.142 80.1097 138.179Z" stroke="#A0A0A0" stroke-width="0.109978" stroke-miterlimit="10"/>
<path d="M34.6998 163.947C25.2087 131.987 46.4674 76.8115 82.0783 40.9476L82.6063 41.4755C47.1603 77.1634 25.9895 131.965 35.4147 163.727L34.6998 163.947Z" stroke="#A0A0A0" stroke-width="0.109978" stroke-miterlimit="10"/>
<path d="M78.0201 177.507C68.551 145.614 70.3217 84.422 81.9794 41.1346L82.6942 41.3326C71.0695 84.532 69.2989 145.537 78.735 177.32L78.0201 177.507Z" stroke="#A0A0A0" stroke-width="0.109978" stroke-miterlimit="10"/>
<path d="M128.357 170.733L128.247 170.348C118.789 138.509 98.0472 80.6387 82.0014 41.3545L81.8474 40.9916L82.2103 40.8596C114.291 29.136 146.624 28.762 168.697 39.8698C180.388 45.7536 188.273 54.5739 191.484 65.3847C198.083 81.6395 197.544 99.4779 189.824 116.953C179.321 140.709 157.05 160.252 128.731 170.59L128.357 170.733ZM82.8262 41.4315C98.795 80.5727 119.361 137.926 128.852 169.765C156.797 159.449 178.771 140.071 189.142 116.656C196.785 99.3789 197.357 81.7274 190.781 65.6377C187.613 54.9918 179.871 46.3255 168.356 40.5407C146.558 29.5759 114.61 29.9058 82.8262 41.4315Z" stroke="#A0A0A0" stroke-width="0.109978" stroke-miterlimit="10"/>
<path d="M99.4989 85.4007L99.2349 84.7079C113.378 79.5389 124.53 69.7948 129.732 57.9502C133.559 49.2839 133.845 40.4417 130.546 32.3693L131.239 32.0834C134.615 40.3427 134.329 49.3939 130.403 58.2581C125.135 70.2787 113.829 80.1658 99.4989 85.4007Z" stroke="#A0A0A0" stroke-width="0.109978" stroke-miterlimit="10"/>
<path d="M116.095 131.723L115.842 131.02C140.114 122.155 159.195 105.417 168.18 85.0928C174.779 70.1798 175.274 54.9698 169.599 41.1016L170.281 40.8267C176.033 54.9038 175.538 70.3228 168.862 85.4118C159.789 105.901 140.532 122.782 116.095 131.723Z" stroke="#A0A0A0" stroke-width="0.109978" stroke-miterlimit="10"/>
<path d="M170.523 143.733C161.087 111.961 121.439 66.1107 82.1443 41.5196L82.5403 40.8927C121.967 65.5608 161.724 111.598 171.238 143.513L170.523 143.733Z" stroke="#A0A0A0" stroke-width="0.109978" stroke-miterlimit="10"/>
<path d="M192.947 106.154C183.533 74.4469 133.9 45.4787 82.3093 41.5745L82.3643 40.8376C134.241 44.7529 184.171 73.963 193.662 105.934L192.947 106.154Z" stroke="#A0A0A0" stroke-width="0.109978" stroke-miterlimit="10"/>
<path d="M190.781 65.6378C188.463 59.9777 185.324 54.6897 181.465 49.9439C177.648 46.1034 173.218 42.9255 168.356 40.5408C146.471 29.543 114.357 29.9059 82.4633 41.5636L82.1334 41.6845L82.0014 41.3546C79.5269 35.3058 77.4373 30.3568 75.6557 26.2656C73.94 26.8155 72.2244 27.4021 70.5087 28.0253L70.1348 28.1572L70.0248 27.7833C64.02 7.56936 65.2737 7.12944 65.8786 6.88749C66.4835 6.64554 67.7483 6.2606 76.0736 25.3308C117.568 12.4304 160.438 22.8343 182.004 49.394C186.417 53.862 189.671 59.3399 191.485 65.3518L190.781 65.6378ZM130.524 31.8085C144.821 31.8085 158.018 34.492 168.697 39.8699C171.696 41.368 174.546 43.1466 177.209 45.1818C154.796 22.3834 115.017 14.0691 76.3705 26.0457C78.1191 30.0489 80.1648 34.8989 82.5513 40.7387C97.9084 35.0212 114.138 32 130.524 31.8085ZM66.1425 7.61333C65.9226 8.11923 65.8456 11.0117 70.6187 27.1564C72.2023 26.5845 73.786 26.0567 75.3697 25.5508C68.5181 9.88989 66.5935 7.88829 66.1425 7.69032V7.61333Z" stroke="#A0A0A0" stroke-width="0.109978" stroke-miterlimit="10"/>
<path d="M130.546 32.3693C122.528 12.7273 95.4407 4.25894 70.1457 13.5081L69.8928 12.8042C95.5617 3.42311 123.089 12.0784 131.261 32.0834L130.546 32.3693Z" stroke="#A0A0A0" stroke-width="0.109978" stroke-miterlimit="10"/>
<path d="M169.599 41.0797C155.808 7.33841 109.276 -7.22268 65.8346 8.64715L65.5816 7.94329C109.397 -8.05851 156.358 6.68954 170.292 40.8047L169.599 41.0797Z" stroke="#A0A0A0" stroke-width="0.109978" stroke-miterlimit="10"/>
<path d="M82.6063 41.4755L82.0783 40.9476C103.887 18.952 127.059 8.4271 144.007 12.6942C153.905 15.1797 160.878 22.5373 164.276 33.975L163.561 34.195C160.262 23.0102 153.421 15.8286 143.831 13.4201C127.092 9.19695 104.239 19.6998 82.6063 41.4755Z" stroke="#A0A0A0" stroke-width="0.109978" stroke-miterlimit="10"/>
<path d="M82.6942 41.3106L81.9794 41.1126C88.776 15.8727 97.6183 1.32256 106.252 1.21259H106.35C112.179 1.21259 117.227 7.81127 120.956 20.4148L120.241 20.6237C116.611 8.40514 111.816 1.92744 106.35 1.92744H106.263C98.1132 2.05941 89.3039 16.7745 82.6942 41.3106Z" stroke="#A0A0A0" stroke-width="0.109978" stroke-miterlimit="10"/>
<path d="M7.51324 132.57C0.914555 116.283 1.43145 98.4772 9.16291 80.9577C19.6218 57.3124 41.7604 37.8243 69.9258 27.4424C64.0309 7.56936 65.2737 7.12945 65.8786 6.92049C66.4835 6.71153 68.3971 6.08466 82.6833 41.0137L82.8262 41.3766L82.4633 41.5086C32.1263 59.8859 -1.18601 100.6 8.21711 132.262L7.51324 132.57ZM66.1425 7.69033C65.9116 8.20723 65.8456 11.1326 70.7396 27.6183L70.8386 27.9483L70.5087 28.0693C42.3763 38.3412 20.2597 57.7633 9.84476 81.3096C3.04812 96.7065 1.83836 112.312 6.27048 126.906C1.95934 95.9257 34.2819 58.5332 81.8474 41.0357C69.6398 11.1217 66.7144 7.94328 66.1425 7.69033Z" stroke="#A0A0A0" stroke-width="0.109978" stroke-miterlimit="10"/>
<path d="M38.1311 66.1216C34.7548 57.8623 35.0408 48.8111 38.967 39.9468C44.2789 27.9372 55.5406 18.0392 69.8708 12.8043L70.1237 13.5081C55.9915 18.6661 44.8288 28.4211 39.6378 40.2548C35.8106 48.921 35.5246 57.7743 38.813 65.8357L38.1311 66.1216Z" stroke="#A0A0A0" stroke-width="0.109978" stroke-miterlimit="10"/>
<path d="M11.3955 98.862C5.64365 84.7848 6.13853 69.3659 12.8142 54.2769C21.8874 33.766 41.1225 16.8844 65.6036 7.94318L65.8566 8.64703C41.5844 17.5113 22.5033 34.2499 13.5181 54.5739C6.91939 69.4759 6.43544 84.6968 12.0993 98.5651L11.3955 98.862Z" stroke="#A0A0A0" stroke-width="0.109978" stroke-miterlimit="10"/>
<path d="M27.7492 54.4089C24.109 42.1353 25.3077 33.2821 31.2135 28.795C40.2427 21.9104 59.4339 26.4415 82.5403 40.8926L82.1443 41.5195C59.3129 27.2223 40.4407 22.7022 31.6644 29.4219C26.0226 33.711 24.9118 42.2893 28.464 54.2329L27.7492 54.4089Z" stroke="#A0A0A0" stroke-width="0.109978" stroke-miterlimit="10"/>
<path d="M5.31365 91.9885C2.01431 80.8147 3.93896 70.3448 10.9116 61.7005C23.4161 46.2046 50.1077 38.3962 82.3973 40.8047L82.3423 41.5416C50.3607 39.133 23.867 46.8205 11.5274 62.1294C4.7088 70.5758 2.81718 80.8257 6.02854 91.7355L5.31365 91.9885Z" stroke="#A0A0A0" stroke-width="0.109978" stroke-miterlimit="10"/>
<path d="M132.899 191.046C132.206 191.046 130.315 189.539 122.902 172.558C81.3964 185.459 38.5161 175.044 16.9604 148.473C12.5512 144.011 9.30359 138.535 7.50223 132.526L8.2061 132.284C10.5191 137.936 13.6503 143.216 17.4993 147.956C21.3146 151.807 25.7497 154.989 30.6196 157.37C52.5163 168.368 84.6188 168.005 116.512 156.359L116.853 156.238L116.985 156.568C119.46 162.616 121.549 167.565 123.32 171.657C125.043 171.107 126.762 170.52 128.478 169.897L128.852 169.765L128.962 170.139C134.956 190.342 133.702 190.782 133.108 191.035C133.04 191.051 132.969 191.055 132.899 191.046ZM123.617 172.349C130.458 188.01 132.415 190.045 132.844 190.276C133.064 189.77 133.141 186.878 128.357 170.744C126.784 171.305 125.201 171.833 123.617 172.338V172.349ZM21.7554 152.718C44.1689 175.528 83.97 183.853 122.616 171.877C120.879 167.873 118.833 163.023 116.446 157.183C84.4758 168.786 52.2963 169.105 30.3007 158.041C27.2913 156.539 24.4302 154.757 21.7554 152.718Z" stroke="#A0A0A0" stroke-width="0.109978" stroke-miterlimit="10"/>
<path d="M97.4093 196.424C66.3295 196.424 38.802 181.874 28.695 157.106L29.3769 156.832C43.1681 190.584 89.7109 205.134 133.141 189.275L133.394 189.968C121.869 194.207 109.689 196.392 97.4093 196.424Z" stroke="#A0A0A0" stroke-width="0.109978" stroke-miterlimit="10"/>
<path d="M62.8102 186.152C60.1679 186.164 57.5342 185.85 54.9688 185.217C45.0708 182.731 38.1092 175.374 34.6998 163.947L35.4147 163.727C38.714 174.901 45.5656 182.083 55.2107 184.502C71.9054 188.703 94.8028 178.222 116.436 156.447L116.963 156.975C98.3001 175.715 78.702 186.152 62.8102 186.152Z" stroke="#A0A0A0" stroke-width="0.109978" stroke-miterlimit="10"/>
<path d="M92.6252 196.698C86.7964 196.698 81.7594 190.1 78.0201 177.507L78.735 177.298C82.3643 189.506 87.1703 195.995 92.6252 195.995H92.7133C100.874 195.896 109.683 181.192 116.282 156.656L117.007 156.853C110.211 182.148 101.358 196.633 92.7243 196.742L92.6252 196.698Z" stroke="#A0A0A0" stroke-width="0.109978" stroke-miterlimit="10"/>
<path d="M132.899 191.046C132.041 191.046 129.303 188.692 116.293 156.854L116.15 156.491L116.512 156.359C166.86 137.981 200.173 97.2564 190.77 65.6048L191.462 65.3518C198.116 81.6396 197.544 99.445 189.824 116.954C179.354 140.61 157.226 160.098 129.061 170.48C134.945 190.353 133.702 190.782 133.108 191.002C133.042 191.029 132.971 191.044 132.899 191.046ZM117.128 156.953C129.347 186.823 132.261 189.946 132.844 190.287C133.064 189.781 133.141 186.845 128.247 170.37L128.148 170.04L128.478 169.919C156.61 159.647 178.716 140.225 189.142 116.679C195.939 101.282 197.137 85.6758 192.705 71.0817C197.027 102.04 164.727 139.433 117.128 156.931V156.953Z" stroke="#A0A0A0" stroke-width="0.109978" stroke-miterlimit="10"/>
<path d="M133.394 189.968L133.141 189.275C157.413 180.411 176.494 163.672 185.48 143.337C192.078 128.435 192.573 113.214 186.898 99.346L187.58 99.0601C193.332 113.137 192.837 128.556 186.162 143.656C177.088 164.156 157.864 181.038 133.394 189.968Z" stroke="#A0A0A0" stroke-width="0.109978" stroke-miterlimit="10"/>
<path d="M156.72 172.272C146.547 172.272 132.437 167.026 116.446 157.029L116.842 156.392C139.663 170.689 158.535 175.22 167.322 168.489C172.953 164.2 174.064 155.622 170.523 143.689L171.238 143.469C174.878 155.732 173.679 164.585 167.762 169.083C164.98 171.239 161.24 172.272 156.72 172.272Z" stroke="#A0A0A0" stroke-width="0.109978" stroke-miterlimit="10"/>
<path d="M128.027 157.524C124.321 157.524 120.505 157.381 116.611 157.085V156.337C148.615 158.756 175.087 151.058 187.437 135.749C194.245 127.302 196.137 117.053 192.936 106.154L193.651 105.934C196.95 117.096 195.037 127.566 188.053 136.211C177.077 149.848 155.093 157.524 128.027 157.524Z" stroke="#A0A0A0" stroke-width="0.109978" stroke-miterlimit="10"/>
<path d="M116.436 157.183L116.293 156.854C100.236 117.525 79.4829 59.622 70.0248 27.7834L69.9258 27.4424L70.2557 27.3215C120.956 8.80115 175.34 25.8697 191.463 65.3518C201.02 97.4214 167.476 138.564 116.765 157.063L116.436 157.183ZM70.8386 27.9043C80.2967 59.71 100.874 117.075 116.853 156.238C167.003 137.794 200.14 97.2015 190.77 65.6158C174.823 26.5846 121.077 9.71397 70.8386 27.9043Z" stroke="#A0A0A0" stroke-width="0.109978" stroke-miterlimit="10"/>
<path d="M186.898 99.3351C173.107 65.5828 126.575 51.0327 83.1341 66.8916L82.8812 66.1987C126.696 50.1969 173.657 64.945 187.591 99.0491L186.898 99.3351Z" stroke="#A0A0A0" stroke-width="0.109978" stroke-miterlimit="10"/>
<path d="M116.908 156.974L116.38 156.447C151.815 120.759 172.986 65.9126 163.561 34.1949L164.276 33.975C173.767 65.9786 152.519 121.111 116.908 156.974Z" stroke="#A0A0A0" stroke-width="0.109978" stroke-miterlimit="10"/>
<path d="M117.007 156.809L116.282 156.612C127.906 113.412 129.688 52.4073 120.241 20.6237L120.956 20.4147C130.436 52.3084 128.654 113.5 117.007 156.809Z" stroke="#A0A0A0" stroke-width="0.109978" stroke-miterlimit="10"/>
<path d="M68.4631 166.114C54.1659 166.114 40.9686 163.43 30.2897 158.041C18.5881 152.157 10.7136 143.337 7.50225 132.526C0.903566 116.283 1.43147 98.4331 9.16293 80.9576C19.6658 57.2243 41.9254 37.6702 70.2557 27.3213L70.6186 27.1893L70.7396 27.5743C80.1867 59.3799 100.94 117.261 116.985 156.567L117.128 156.93L116.765 157.062C101.311 162.855 84.9666 165.918 68.4631 166.114ZM70.1457 28.1571C42.1893 38.4731 20.2267 57.8512 9.85579 81.2655C2.21232 98.5431 1.64045 116.195 8.21713 132.284C11.3735 142.919 19.127 151.585 30.6307 157.37C52.4393 168.368 84.3879 168.016 116.161 156.49C100.181 117.327 79.6149 59.9848 70.1457 28.1571Z" stroke="#A0A0A0" stroke-width="0.109978" stroke-miterlimit="10"/>
<path d="M28.695 157.107C22.9432 143.04 23.438 127.621 30.1137 112.521C39.1869 92.0106 58.4221 75.1289 82.9032 66.1987L83.1562 66.8916C58.884 75.7558 39.8028 92.4945 30.8176 112.818C24.2189 127.731 23.735 142.952 29.3989 156.81L28.695 157.107Z" stroke="#A0A0A0" stroke-width="0.109978" stroke-miterlimit="10"/>
<path d="M116.446 157.029C77.0193 132.361 37.2623 86.3245 27.7492 54.4089L28.464 54.189C37.9002 85.9616 77.5363 131.811 116.842 156.392L116.446 157.029Z" stroke="#A0A0A0" stroke-width="0.109978" stroke-miterlimit="10"/>
<path d="M116.611 157.084C64.7458 153.169 14.8158 123.959 5.31368 91.9885L6.02856 91.7686C15.4537 123.486 65.0757 152.443 116.666 156.337L116.611 157.084Z" stroke="#A0A0A0" stroke-width="0.109978" stroke-miterlimit="10"/>
<path d="M99.6529 196.973C93.9866 196.988 88.33 196.503 82.7492 195.522C78.1083 194.708 73.5295 193.572 69.046 192.123C64.2151 190.547 59.5126 188.602 54.9798 186.306C52.9232 185.206 50.5807 183.985 48.854 182.918C47.3583 181.983 43.5861 179.619 40.8916 177.584C36.0805 173.993 31.6044 169.973 27.5182 165.575C26.0445 163.98 23.999 161.692 22.5802 159.812C20.3807 156.919 17.7082 153.07 15.8936 150.233C13.2954 145.813 10.974 141.237 8.94294 136.53L8.73398 136.079C8.55801 135.661 8.39309 135.221 8.22812 134.781C6.87539 131.218 5.18172 126.126 4.7858 124.399C4.62083 123.684 4.43387 122.903 4.23591 122.1C3.774 120.22 3.30106 118.284 3.02611 116.601C2.43223 112.994 1.92635 108.232 1.59641 104.977C1.30817 101.317 1.28612 97.6417 1.53043 93.979C1.91209 89.0149 2.55081 84.0739 3.44403 79.176C4.04916 75.9662 4.87598 72.8023 5.91854 69.7069C6.1055 69.168 6.3035 68.6071 6.50146 67.9802C7.07334 66.2976 7.72218 64.3949 8.32706 62.9212C9.08591 61.0406 10.5267 57.4993 11.9344 54.9038C14.1548 50.4591 16.7293 46.2002 19.6328 42.1684C22.328 38.3703 25.2941 34.7719 28.5081 31.4015C31.5486 28.1839 34.8161 25.1885 38.2851 22.4383C41.6171 19.7715 45.1221 17.3283 48.777 15.1248C52.3737 12.9288 56.1182 10.9849 59.9838 9.30693C60.5447 9.08697 61.1715 8.82302 61.8094 8.54807C63.2061 7.95419 64.6468 7.34932 65.8896 6.9424C73.5881 4.39091 74.2369 4.18196 77.9872 3.36812C81.9464 2.52129 87.3133 1.78443 90.1507 1.4215C91.4595 1.25654 93.0432 1.17955 94.5499 1.11357C95.2097 1.11357 95.8586 1.05856 96.4415 1.01457C100.721 0.888534 105.005 1.03915 109.265 1.46549C113.737 1.90977 118.173 2.6668 122.539 3.73103C127.199 4.84471 131.765 6.31543 136.199 8.13015C149.573 13.4955 161.593 21.7587 171.392 32.3253C173.085 34.1949 174.999 36.3395 176.33 38.0882L176.396 38.1872C178.781 41.2213 180.984 44.3942 182.994 47.6893C185.348 51.8354 188.229 57.5213 190.143 61.8324C191.401 64.868 192.502 67.9661 193.442 71.1146C194.765 75.7261 195.793 80.417 196.521 85.1588C197.176 90.2869 197.499 95.4519 197.489 100.622C197.363 109.986 195.855 119.281 193.013 128.204C191.432 133.301 189.42 138.253 186.997 143.007C180.661 155.599 171.68 166.673 160.669 175.473C154.021 180.765 146.721 185.182 138.948 188.615C131.832 191.497 130.348 192.101 127.015 193.014L125.201 193.52C123.738 193.927 122.22 194.345 120.934 194.62C115.798 195.61 111.706 196.27 108.77 196.567C105.74 196.857 102.697 196.992 99.6529 196.973ZM9.47088 135.782L9.67984 136.222C11.6903 140.9 13.9933 145.448 16.5754 149.837C18.3791 152.663 21.0515 156.491 23.1741 159.361C24.5818 161.22 26.6164 163.496 28.0681 165.08C32.1338 169.437 36.5799 173.423 41.3535 176.99C44.026 179.003 47.7652 181.39 49.2609 182.28C50.9656 183.38 53.2861 184.568 55.3317 185.646C63.9901 190.045 73.2573 193.125 82.8262 194.785C91.369 196.271 100.073 196.604 108.704 195.775C111.618 195.478 115.688 194.829 120.802 193.839C122.055 193.597 123.551 193.168 124.992 192.739C125.641 192.552 126.267 192.376 126.828 192.233C130.128 191.376 131.59 190.771 138.673 187.9C146.372 184.503 153.602 180.131 160.185 174.89C167.232 169.254 173.461 162.665 178.694 155.314C184.629 146.961 189.223 137.733 192.309 127.962C195.107 119.102 196.589 109.879 196.708 100.589C196.72 95.4408 196.397 90.2976 195.741 85.1918C195.024 80.4903 194.007 75.8396 192.694 71.2685C191.88 68.6841 190.66 64.7798 189.461 62.0744C187.547 57.7742 184.688 52.1214 182.334 47.9862C180.321 44.7217 178.118 41.5782 175.736 38.5721L175.67 38.4731C174.361 36.7465 172.458 34.6129 170.776 32.7542C161.071 22.2994 149.178 14.1165 135.946 8.79003C131.549 6.97877 127.019 5.50807 122.396 4.39091C118.055 3.3463 113.645 2.61127 109.199 2.19135C104.979 1.7655 100.736 1.61487 96.4965 1.74043L94.5828 1.83941C93.0651 1.90539 91.4924 1.97139 90.1837 2.13635C87.3463 2.49928 82.0123 3.23614 78.0861 4.07198C74.3689 4.88582 73.7421 5.08377 66.0546 7.62426C64.8448 8.02018 63.4151 8.62507 62.0294 9.20795L60.2037 9.97779C56.3762 11.6286 52.6715 13.5508 49.1179 15.7296C45.4805 17.9169 41.9937 20.3456 38.681 22.9992C35.235 25.7244 31.993 28.6981 28.981 31.8964C25.793 35.2379 22.8525 38.8069 20.1827 42.5753C17.3106 46.5766 14.7585 50.7982 12.5502 55.2008C11.1975 57.7962 9.7238 61.3155 8.96495 63.1742C8.37107 64.6369 7.73318 66.5285 7.1613 68.1892C6.96334 68.805 6.7544 69.3879 6.56744 69.9268C5.54501 72.9912 4.73293 76.1219 4.1369 79.2969C3.24878 84.1876 2.61741 89.1213 2.24531 94.078C1.99864 97.6927 2.01701 101.321 2.30029 104.933C2.60823 108.177 3.13611 112.917 3.72999 116.503C3.99394 118.119 4.46686 120.033 4.91777 121.891C5.12673 122.705 5.3137 123.497 5.47867 124.212C5.64364 124.927 5.87458 125.686 6.22651 126.785C5.97134 124.941 5.84276 123.082 5.84161 121.221C5.84161 91.3835 37.2623 57.2574 82.1663 40.8596L82.4193 41.5635C37.8122 57.8512 6.53441 91.6695 6.53441 121.188C6.52199 124.955 7.05922 128.705 8.12911 132.317C8.34907 133.054 8.59105 133.791 8.855 134.517L9.33891 135.782H9.47088Z" stroke="#A0A0A0" stroke-width="0.109978" stroke-miterlimit="10"/>
</g>
<path d="M9.14094 135.925C11.2237 140.772 13.6076 145.485 16.2785 150.035C18.1481 152.993 20.8316 156.799 22.9432 159.592C24.3069 161.396 26.3195 163.661 27.8592 165.333C31.9368 169.707 36.3977 173.708 41.1885 177.287C43.465 179.014 46.6874 181.093 49.1179 182.599C50.8996 183.699 53.3631 184.997 55.2107 185.976C59.7319 188.258 64.4193 190.196 69.2329 191.772C73.693 193.218 78.2502 194.347 82.8702 195.148C91.4447 196.648 100.182 196.985 108.847 196.149C112.476 195.775 117.326 194.895 120.945 194.202C122.792 193.839 125.19 193.102 127.004 192.618C130.293 191.761 131.777 191.167 138.893 188.285C146.625 184.867 153.888 180.473 160.504 175.209C163.95 172.464 167.199 169.48 170.226 166.279C173.422 162.929 176.363 159.345 179.024 155.556C190.485 139.498 196.816 120.347 197.181 100.622C197.191 95.4736 196.864 90.3303 196.203 85.2248C195.484 80.5012 194.462 75.8285 193.145 71.2356C192.213 68.1124 191.119 65.0399 189.868 62.0305C187.943 57.6974 185.084 52.0445 182.741 47.9203C180.709 44.6065 178.484 41.4153 176.077 38.3632C174.702 36.5486 172.678 34.294 171.161 32.6224C161.399 22.0575 149.412 13.7933 136.067 8.42719C131.644 6.6137 127.088 5.143 122.44 4.02807C118.1 2.96484 113.69 2.21142 109.243 1.77352C105.001 1.34753 100.736 1.19693 96.4745 1.32262C94.5828 1.4436 92.0533 1.48758 90.1837 1.72953C86.5544 2.19144 81.8583 2.87331 78.0861 3.67615C74.3139 4.47899 73.687 4.68794 65.9885 7.22843C64.1849 7.82232 61.8644 8.8781 60.1047 9.59296C56.2525 11.2565 52.5223 13.1896 48.9419 15.3778C45.3055 17.5802 41.8156 20.0158 38.494 22.6693C35.0343 25.3985 31.7811 28.3797 28.761 31.5886C25.5772 34.9493 22.637 38.5326 19.9627 42.3114C17.0589 46.3314 14.4843 50.5794 12.2643 55.0139C11.0435 57.3344 9.65778 60.5568 8.66798 62.9983C7.85414 64.9889 6.97431 67.7273 6.25946 69.7619C5.23736 72.8422 4.42175 75.9873 3.81798 79.1761C2.94193 84.1077 2.32521 89.0818 1.97035 94.0781C1.72273 97.7113 1.74478 101.358 2.03634 104.988C2.36627 108.474 2.89415 113.126 3.46604 116.591C3.85096 118.911 4.68683 121.968 5.21472 124.289C5.66563 126.236 7.75522 132.427 9.14094 135.925ZM9.14094 135.925C8.67903 134.825 8.27205 133.615 7.90913 132.427M9.14094 135.925C8.67903 134.781 8.27205 133.615 7.90913 132.427M7.90913 132.427C-1.54898 100.534 31.8734 59.655 82.3973 41.2116C31.8734 59.655 -1.54898 100.6 7.90913 132.427Z" stroke="#A0A0A0" stroke-width="0.109978" stroke-miterlimit="10"/>
<mask id="mask1_134_977" style="mask-type:luminance" maskUnits="userSpaceOnUse" x="1" y="1" width="197" height="196">
<path d="M189.89 61.9975C192.496 68.5962 192.496 68.5962 195.092 78.9341C195.859 82.2802 196.392 85.6758 196.686 89.0961C197.098 92.9234 197.264 96.7733 197.181 100.622C197.06 102.898 197.005 105.923 196.752 108.188C196.4 111.356 195.851 115.579 195.169 118.691C193.084 128.807 189.393 138.523 184.237 147.472C179.363 155.957 173.251 163.667 166.102 170.348C159.653 176.379 152.408 181.497 144.568 185.558C140.815 187.49 136.948 189.19 132.987 190.65C131.184 191.244 128.819 192.146 126.982 192.618C119.603 194.554 118.833 194.752 114.885 195.357C113.048 195.643 110.607 196.028 108.759 196.149C105.075 196.38 100.148 196.545 96.4525 196.545C92.2158 196.394 87.9922 195.986 83.805 195.324C79.197 194.586 74.6499 193.509 70.2007 192.102C65.9436 190.716 61.7687 189.089 57.6962 187.23C52.5961 184.825 47.7132 181.984 43.1021 178.739C38.4324 175.469 34.0637 171.788 30.0477 167.741C28.497 166.103 26.3965 163.947 24.9668 162.243C22.8772 159.68 20.1497 156.205 18.3681 153.444C17.0813 151.498 15.3877 148.869 14.2989 146.846C12.6052 143.667 10.5156 139.334 9.08592 136.035C20.9745 165.146 68.0122 174.527 116.644 156.821C68.0122 174.582 20.9635 165.146 9.08592 136.035C8.27209 133.769 7.06235 130.789 6.35849 128.49C5.50066 125.708 4.59884 121.892 3.88398 119.087C3.12538 115.744 2.59625 112.352 2.3003 108.936C1.8885 105.105 1.72318 101.252 1.80538 97.3995C1.92636 95.1339 1.98135 92.0985 2.22331 89.844C2.57523 86.6766 3.12514 82.4424 3.818 79.3301C5.90054 69.2189 9.5874 59.5061 14.7388 50.5598C17.2675 46.1775 20.1202 41.9903 23.2731 38.0333C26.2258 34.3585 29.4341 30.8966 32.8742 27.6734C39.3254 21.6439 46.5749 16.5297 54.4189 12.4744C58.1706 10.5402 62.0381 8.83962 65.9995 7.38244C67.8032 6.78856 70.1677 5.87574 71.9934 5.40283C80.1537 3.26926 80.1537 3.26925 84.091 2.66437C85.9166 2.37843 88.3691 1.99351 90.2167 1.88354C93.901 1.64159 98.817 1.47662 102.512 1.47662C106.749 1.62636 110.973 2.03403 115.16 2.69738C119.768 3.43346 124.315 4.51053 128.764 5.91973C133.024 7.30736 137.203 8.93395 141.28 10.7918C146.374 13.1999 151.253 16.0404 155.863 19.2821C160.534 22.5544 164.907 26.2348 168.928 30.2799C170.468 31.9185 172.568 34.0741 173.998 35.7788C176.088 38.3412 178.815 41.8166 180.597 44.577C184.283 50.0499 187.398 55.8875 189.89 61.9975Z" fill="white"/>
</mask>
<g mask="url(#mask1_134_977)">
<path d="M87.0604 178.079C51.0756 178.079 19.2259 161.231 7.51327 132.57C-2.01082 100.501 31.4995 59.38 82.2434 40.8597L82.5843 40.7388L82.7163 41.0687C98.773 80.3858 119.537 138.278 128.995 170.139L129.094 170.48L128.764 170.59C115.408 175.506 101.293 178.041 87.0604 178.079ZM82.1334 41.7066C31.9724 60.1499 -1.16397 100.754 8.21715 132.339C24.142 171.349 77.8992 188.23 128.093 170.04C118.679 138.201 98.1022 80.8368 82.1334 41.6846V41.7066Z" stroke="#A0A0A0" stroke-width="0.109978" stroke-miterlimit="10"/>
<path d="M80.1097 138.179C49.03 138.179 21.5025 123.629 11.3955 98.8621L12.0774 98.5762C25.8686 132.328 72.4113 146.879 115.842 131.02L116.095 131.724C104.568 135.957 92.3894 138.142 80.1097 138.179Z" stroke="#A0A0A0" stroke-width="0.109978" stroke-miterlimit="10"/>
<path d="M34.6998 163.947C25.2087 131.987 46.4674 76.8115 82.0783 40.9476L82.6063 41.4755C47.1603 77.1634 25.9895 131.965 35.4147 163.727L34.6998 163.947Z" stroke="#A0A0A0" stroke-width="0.109978" stroke-miterlimit="10"/>
<path d="M78.0201 177.507C68.551 145.614 70.3217 84.422 81.9794 41.1346L82.6942 41.3326C71.0695 84.532 69.2989 145.537 78.735 177.32L78.0201 177.507Z" stroke="#A0A0A0" stroke-width="0.109978" stroke-miterlimit="10"/>
<path d="M128.357 170.733L128.247 170.348C118.789 138.509 98.0472 80.6387 82.0014 41.3545L81.8474 40.9916L82.2103 40.8596C114.291 29.136 146.624 28.762 168.697 39.8698C180.388 45.7536 188.273 54.5739 191.485 65.3847C198.083 81.6395 197.544 99.4779 189.824 116.953C179.321 140.709 157.05 160.252 128.731 170.59L128.357 170.733ZM82.8262 41.4315C98.795 80.5727 119.361 137.926 128.852 169.765C156.797 159.449 178.771 140.071 189.142 116.656C196.785 99.3789 197.357 81.7274 190.781 65.6377C187.613 54.9918 179.871 46.3255 168.356 40.5407C146.558 29.5759 114.61 29.9058 82.8262 41.4315Z" stroke="#A0A0A0" stroke-width="0.109978" stroke-miterlimit="10"/>
<path d="M116.095 131.723L115.842 131.02C140.114 122.155 159.195 105.417 168.18 85.0928C174.779 70.1798 175.274 54.9698 169.599 41.1016L170.281 40.8267C176.033 54.9038 175.538 70.3228 168.862 85.4118C159.789 105.901 140.532 122.782 116.095 131.723Z" stroke="#A0A0A0" stroke-width="0.109978" stroke-miterlimit="10"/>
<path d="M170.523 143.733C161.087 111.961 121.439 66.1107 82.1443 41.5196L82.5403 40.8927C121.967 65.5608 161.724 111.598 171.238 143.513L170.523 143.733Z" stroke="#A0A0A0" stroke-width="0.109978" stroke-miterlimit="10"/>
<path d="M192.947 106.154C183.533 74.4469 133.9 45.4787 82.3093 41.5745L82.3643 40.8376C134.241 44.7529 184.171 73.963 193.662 105.934L192.947 106.154Z" stroke="#A0A0A0" stroke-width="0.109978" stroke-miterlimit="10"/>
<path d="M190.781 65.6378C188.463 59.9777 185.324 54.6897 181.466 49.9439C177.648 46.1034 173.218 42.9255 168.356 40.5408C146.471 29.543 114.357 29.9059 82.4633 41.5636L82.1334 41.6845L82.0014 41.3546C79.5269 35.3058 77.4373 30.3568 75.6557 26.2656C73.94 26.8155 72.2244 27.4021 70.5087 28.0253L70.1348 28.1572L70.0248 27.7833C64.02 7.56936 65.2737 7.12944 65.8786 6.88749C66.4835 6.64554 67.7483 6.2606 76.0736 25.3308C117.568 12.4304 160.438 22.8343 182.004 49.394C186.417 53.862 189.671 59.3399 191.485 65.3518L190.781 65.6378ZM130.524 31.8085C144.821 31.8085 158.018 34.492 168.697 39.8699C171.696 41.368 174.546 43.1466 177.209 45.1818C154.796 22.3834 115.017 14.0691 76.3705 26.0457C78.1192 30.0489 80.1648 34.8989 82.5513 40.7387C97.9084 35.0212 114.138 32 130.524 31.8085ZM66.1426 7.61333C65.9226 8.11923 65.8456 11.0117 70.6187 27.1564C72.2024 26.5845 73.786 26.0567 75.3697 25.5508C68.5181 9.88989 66.5935 7.88829 66.1426 7.69032V7.61333Z" stroke="#A0A0A0" stroke-width="0.109978" stroke-miterlimit="10"/>
<path d="M169.599 41.0797C155.808 7.33841 109.276 -7.22268 65.8346 8.64715L65.5816 7.94329C109.397 -8.05851 156.358 6.68954 170.292 40.8047L169.599 41.0797Z" stroke="#A0A0A0" stroke-width="0.109978" stroke-miterlimit="10"/>
<path d="M82.6063 41.4755L82.0783 40.9476C103.887 18.952 127.059 8.4271 144.007 12.6942C153.905 15.1797 160.878 22.5373 164.276 33.975L163.561 34.195C160.262 23.0102 153.421 15.8286 143.831 13.4201C127.092 9.19695 104.239 19.6998 82.6063 41.4755Z" stroke="#A0A0A0" stroke-width="0.109978" stroke-miterlimit="10"/>
<path d="M82.6942 41.3106L81.9794 41.1126C88.776 15.8727 97.6183 1.32256 106.252 1.21259H106.35C112.179 1.21259 117.227 7.81127 120.956 20.4148L120.241 20.6237C116.611 8.40514 111.816 1.92744 106.35 1.92744H106.263C98.1132 2.05941 89.3039 16.7745 82.6942 41.3106Z" stroke="#A0A0A0" stroke-width="0.109978" stroke-miterlimit="10"/>
<path d="M7.51324 132.57C0.914562 116.283 1.43146 98.4772 9.16291 80.9577C19.6218 57.3124 41.7604 37.8243 69.9258 27.4424C64.0309 7.56936 65.2737 7.12945 65.8786 6.92049C66.4835 6.71153 68.3971 6.08466 82.6833 41.0137L82.8262 41.3766L82.4633 41.5086C32.1263 59.8859 -1.186 100.6 8.21712 132.262L7.51324 132.57ZM66.1425 7.69033C65.9116 8.20723 65.8456 11.1326 70.7396 27.6183L70.8386 27.9483L70.5087 28.0693C42.3763 38.3412 20.2597 57.7633 9.84477 81.3096C3.04813 96.7065 1.83837 112.312 6.27049 126.906C1.95935 95.9257 34.2819 58.5332 81.8474 41.0357C69.6399 11.1217 66.7144 7.94328 66.1425 7.69033Z" stroke="#A0A0A0" stroke-width="0.109978" stroke-miterlimit="10"/>
<path d="M11.3955 98.862C5.64366 84.7848 6.13854 69.3659 12.8142 54.2769C21.8874 33.766 41.1225 16.8844 65.6037 7.94318L65.8566 8.64703C41.5844 17.5113 22.5033 34.2499 13.5181 54.5739C6.9194 69.4759 6.43545 84.6968 12.0993 98.5651L11.3955 98.862Z" stroke="#A0A0A0" stroke-width="0.109978" stroke-miterlimit="10"/>
<path d="M27.7492 54.4089C24.109 42.1353 25.3077 33.2821 31.2135 28.795C40.2427 21.9104 59.4339 26.4415 82.5403 40.8926L82.1443 41.5195C59.3129 27.2223 40.4407 22.7022 31.6644 29.4219C26.0226 33.711 24.9118 42.2893 28.464 54.2329L27.7492 54.4089Z" stroke="#A0A0A0" stroke-width="0.109978" stroke-miterlimit="10"/>
<path d="M5.31366 91.9885C2.01432 80.8147 3.93896 70.3448 10.9116 61.7005C23.4161 46.2046 50.1077 38.3962 82.3973 40.8047L82.3423 41.5416C50.3607 39.133 23.867 46.8205 11.5274 62.1294C4.70881 70.5758 2.81719 80.8257 6.02854 91.7355L5.31366 91.9885Z" stroke="#A0A0A0" stroke-width="0.109978" stroke-miterlimit="10"/>
<path d="M132.899 191.046C132.206 191.046 130.315 189.539 122.902 172.558C81.3965 185.459 38.5161 175.044 16.9604 148.473C12.5512 144.011 9.30359 138.535 7.50224 132.526L8.20611 132.284C10.5191 137.936 13.6503 143.216 17.4993 147.956C21.3146 151.807 25.7498 154.989 30.6196 157.37C52.5163 168.368 84.6188 168.005 116.512 156.359L116.853 156.238L116.985 156.568C119.46 162.616 121.549 167.565 123.32 171.657C125.043 171.107 126.762 170.52 128.478 169.897L128.852 169.765L128.962 170.139C134.956 190.342 133.702 190.782 133.108 191.035C133.04 191.051 132.969 191.055 132.899 191.046ZM123.617 172.349C130.458 188.01 132.415 190.045 132.844 190.276C133.064 189.77 133.141 186.878 128.357 170.744C126.784 171.305 125.201 171.833 123.617 172.338V172.349ZM21.7554 152.718C44.1689 175.528 83.97 183.853 122.616 171.877C120.879 167.873 118.833 163.023 116.446 157.183C84.4758 168.786 52.2963 169.105 30.3007 158.041C27.2913 156.539 24.4302 154.757 21.7554 152.718Z" stroke="#A0A0A0" stroke-width="0.109978" stroke-miterlimit="10"/>
<path d="M97.4093 196.424C66.3295 196.424 38.802 181.874 28.695 157.106L29.3769 156.832C43.1681 190.584 89.7109 205.134 133.141 189.275L133.394 189.968C121.869 194.207 109.689 196.392 97.4093 196.424Z" stroke="#A0A0A0" stroke-width="0.109978" stroke-miterlimit="10"/>
<path d="M108.033 188.89C89.8098 188.89 73.676 180.356 67.7372 165.795L68.4301 165.52C76.4585 185.162 103.546 193.619 128.852 184.381L129.105 185.074C122.359 187.57 115.226 188.862 108.033 188.89Z" stroke="#A0A0A0" stroke-width="0.109978" stroke-miterlimit="10"/>
<path d="M62.8102 186.152C60.1679 186.164 57.5342 185.85 54.9688 185.217C45.0708 182.731 38.1092 175.374 34.6998 163.947L35.4147 163.727C38.714 174.901 45.5656 182.083 55.2107 184.502C71.9054 188.703 94.8028 178.222 116.436 156.447L116.963 156.975C98.3001 175.715 78.702 186.152 62.8102 186.152Z" stroke="#A0A0A0" stroke-width="0.109978" stroke-miterlimit="10"/>
<path d="M92.6253 196.698C86.7964 196.698 81.7594 190.1 78.0201 177.507L78.735 177.298C82.3643 189.506 87.1703 195.995 92.6253 195.995H92.7133C100.874 195.896 109.683 181.192 116.282 156.656L117.007 156.853C110.211 182.148 101.358 196.633 92.7243 196.742L92.6253 196.698Z" stroke="#A0A0A0" stroke-width="0.109978" stroke-miterlimit="10"/>
<path d="M132.899 191.046C132.041 191.046 129.303 188.692 116.293 156.854L116.15 156.491L116.512 156.359C166.86 137.981 200.173 97.2564 190.77 65.6048L191.463 65.3518C198.116 81.6396 197.544 99.445 189.824 116.954C179.354 140.61 157.226 160.098 129.061 170.48C134.945 190.353 133.702 190.782 133.108 191.002C133.042 191.029 132.971 191.044 132.899 191.046ZM117.128 156.953C129.347 186.823 132.261 189.946 132.844 190.287C133.064 189.781 133.141 186.845 128.247 170.37L128.148 170.04L128.478 169.919C156.61 159.647 178.716 140.225 189.142 116.679C195.939 101.282 197.137 85.6758 192.705 71.0817C197.027 102.04 164.727 139.433 117.128 156.931V156.953Z" stroke="#A0A0A0" stroke-width="0.109978" stroke-miterlimit="10"/>
<path d="M133.394 189.968L133.141 189.275C157.413 180.411 176.494 163.672 185.48 143.337C192.078 128.435 192.573 113.214 186.898 99.346L187.58 99.0601C193.332 113.137 192.837 128.556 186.162 143.656C177.088 164.156 157.864 181.038 133.394 189.968Z" stroke="#A0A0A0" stroke-width="0.109978" stroke-miterlimit="10"/>
<path d="M129.105 185.107L128.852 184.414C142.995 179.256 154.147 169.501 159.338 157.667C163.176 149.001 163.462 140.148 160.163 132.075L160.856 131.801C164.232 140.06 163.935 149.111 160.02 157.964C154.697 169.985 143.435 179.883 129.105 185.107Z" stroke="#A0A0A0" stroke-width="0.109978" stroke-miterlimit="10"/>
<path d="M156.72 172.272C146.547 172.272 132.437 167.026 116.446 157.029L116.842 156.392C139.663 170.689 158.535 175.22 167.322 168.489C172.953 164.2 174.064 155.622 170.523 143.689L171.238 143.469C174.878 155.732 173.679 164.585 167.762 169.083C164.98 171.239 161.241 172.272 156.72 172.272Z" stroke="#A0A0A0" stroke-width="0.109978" stroke-miterlimit="10"/>
<path d="M128.027 157.524C124.321 157.524 120.505 157.381 116.611 157.085V156.337C148.615 158.756 175.087 151.058 187.437 135.749C194.245 127.302 196.137 117.053 192.936 106.154L193.651 105.934C196.95 117.096 195.037 127.566 188.053 136.211C177.077 149.848 155.093 157.524 128.027 157.524Z" stroke="#A0A0A0" stroke-width="0.109978" stroke-miterlimit="10"/>
<path d="M116.436 157.183L116.293 156.854C100.236 117.525 79.4829 59.622 70.0248 27.7834L69.9258 27.4424L70.2557 27.3215C120.956 8.80115 175.34 25.8697 191.463 65.3518C201.02 97.4214 167.476 138.564 116.765 157.063L116.436 157.183ZM70.8386 27.9043C80.2967 59.71 100.874 117.075 116.853 156.238C167.003 137.794 200.14 97.2015 190.77 65.6158C174.823 26.5846 121.077 9.71397 70.8386 27.9043Z" stroke="#A0A0A0" stroke-width="0.109978" stroke-miterlimit="10"/>
<path d="M186.898 99.3351C173.107 65.5828 126.575 51.0327 83.1341 66.8916L82.8812 66.1987C126.696 50.1969 173.657 64.945 187.591 99.0491L186.898 99.3351Z" stroke="#A0A0A0" stroke-width="0.109978" stroke-miterlimit="10"/>
<path d="M160.163 132.075C152.134 112.433 125.036 103.976 99.7408 113.214L99.4879 112.51C125.157 103.14 152.684 111.795 160.856 131.8L160.163 132.075Z" stroke="#A0A0A0" stroke-width="0.109978" stroke-miterlimit="10"/>
<path d="M116.908 156.974L116.38 156.447C151.815 120.759 172.986 65.9126 163.561 34.1949L164.276 33.975C173.767 65.9786 152.519 121.111 116.908 156.974Z" stroke="#A0A0A0" stroke-width="0.109978" stroke-miterlimit="10"/>
<path d="M117.007 156.809L116.282 156.612C127.906 113.412 129.688 52.4073 120.241 20.6237L120.956 20.4147C130.436 52.3084 128.654 113.5 117.007 156.809Z" stroke="#A0A0A0" stroke-width="0.109978" stroke-miterlimit="10"/>
<path d="M68.4631 166.114C54.1659 166.114 40.9686 163.43 30.2897 158.041C18.5881 152.157 10.7136 143.337 7.50225 132.526C0.903573 116.283 1.43148 98.4331 9.16293 80.9576C19.6658 57.2243 41.9254 37.6702 70.2557 27.3213L70.6187 27.1893L70.7396 27.5743C80.1867 59.3799 100.94 117.261 116.985 156.567L117.128 156.93L116.765 157.062C101.311 162.855 84.9666 165.918 68.4631 166.114ZM70.1458 28.1571C42.1893 38.4731 20.2267 57.8512 9.8558 81.2655C2.21233 98.5431 1.64045 116.195 8.21714 132.284C11.3735 142.919 19.127 151.585 30.6307 157.37C52.4393 168.368 84.3879 168.016 116.161 156.49C100.181 117.327 79.6149 59.9848 70.1458 28.1571Z" stroke="#A0A0A0" stroke-width="0.109978" stroke-miterlimit="10"/>
<path d="M28.695 157.107C22.9432 143.04 23.4381 127.621 30.1137 112.521C39.1869 92.0106 58.4221 75.1289 82.9032 66.1987L83.1562 66.8916C58.884 75.7558 39.8028 92.4945 30.8176 112.818C24.2189 127.731 23.735 142.952 29.3989 156.81L28.695 157.107Z" stroke="#A0A0A0" stroke-width="0.109978" stroke-miterlimit="10"/>
<path d="M67.7372 165.828C64.3719 157.568 64.6578 148.517 68.573 139.664C73.896 127.643 85.1577 117.745 99.4878 112.51L99.7408 113.214C85.5976 118.372 74.4459 128.127 69.2549 139.961C65.4167 148.627 65.1307 157.48 68.4301 165.553L67.7372 165.828Z" stroke="#A0A0A0" stroke-width="0.109978" stroke-miterlimit="10"/>
<path d="M116.446 157.029C77.0193 132.361 37.2623 86.3245 27.7492 54.4089L28.464 54.189C37.9002 85.9616 77.5363 131.811 116.842 156.392L116.446 157.029Z" stroke="#A0A0A0" stroke-width="0.109978" stroke-miterlimit="10"/>
<path d="M116.611 157.084C64.7458 153.169 14.8158 123.959 5.31369 91.9885L6.02857 91.7686C15.4537 123.486 65.0757 152.443 116.666 156.337L116.611 157.084Z" stroke="#A0A0A0" stroke-width="0.109978" stroke-miterlimit="10"/>
<path d="M96.5404 196.919C92.2759 196.783 88.0232 196.394 83.805 195.753C79.1764 194.993 74.6107 193.89 70.1457 192.453C65.876 191.054 61.6868 189.42 57.5972 187.559C52.4775 185.139 47.5731 182.288 42.9372 179.036C38.2476 175.736 33.8606 172.027 29.8278 167.95L29.0469 167.125C27.5842 165.597 25.9456 163.826 24.7358 162.396C23.1191 160.417 20.1057 156.645 18.0821 153.598C16.2344 150.816 14.8598 148.561 13.9909 146.923C12.6272 144.36 11.0215 141.072 9.70176 138.179C9.37183 137.486 9.05292 136.783 8.76697 136.068C8.48103 135.353 8.19509 134.528 7.87615 133.692C7.20529 131.911 6.50144 130.074 6.02853 128.501C5.30268 126.148 4.55482 123.145 3.89496 120.495L3.54302 119.076C2.78855 115.713 2.25948 112.304 1.95933 108.87C1.53076 105.022 1.36539 101.149 1.46442 97.2784C1.46442 96.6405 1.53042 95.9257 1.55242 95.1998C1.6294 93.3852 1.71738 91.3286 1.89335 89.7009C2.23428 86.6655 2.77319 82.3764 3.48804 79.154C5.5847 69.0007 9.29789 59.2499 14.4858 50.2738C19.3741 41.7546 25.5091 34.0145 32.6872 27.3104C39.1627 21.2496 46.442 16.1093 54.3198 12.0345C58.086 10.0959 61.9683 8.39162 65.9445 6.93147L67.7922 6.2936C69.2219 5.7877 70.7066 5.27081 71.9713 4.94087C80.1427 2.8073 80.1427 2.80729 84.0689 2.20241C85.9165 1.90547 88.3691 1.53155 90.2277 1.41057C93.945 1.16862 98.828 1.01465 102.413 1.01465H102.545C106.796 1.1444 111.035 1.53741 115.237 2.19142C119.848 2.96277 124.399 4.0654 128.852 5.49076C133.127 6.88612 137.32 8.52002 141.411 10.3848C146.535 12.7907 151.437 15.6428 156.061 18.9081C160.738 22.19 165.11 25.8855 169.126 29.9499L169.929 30.7857C171.369 32.3144 173.019 34.0301 174.218 35.5038C175.846 37.4944 178.87 41.2886 180.883 44.302C184.573 49.8188 187.694 55.6961 190.198 61.8435C192.804 68.4422 192.804 68.4422 195.411 78.8241C196.171 82.19 196.704 85.6034 197.005 89.0411C197.433 92.8856 197.598 96.7548 197.5 100.622C197.5 101.293 197.445 102.029 197.412 102.821C197.335 104.603 197.258 106.638 197.082 108.232C196.741 111.29 196.18 115.601 195.488 118.779C193.382 128.93 189.669 138.679 184.49 147.659C181.954 152.059 179.09 156.261 175.923 160.23C172.962 163.922 169.738 167.395 166.277 170.623C159.824 176.663 152.571 181.789 144.722 185.855C140.953 187.791 137.071 189.499 133.097 190.969L131.26 191.596C129.831 192.101 128.346 192.618 127.07 192.948H126.971C123.036 194.141 119.029 195.078 114.973 195.753H114.874C113.092 196.028 110.651 196.413 108.814 196.534C105.064 196.754 100.17 196.919 96.5404 196.919ZM13.54 144.558C13.892 145.262 14.2438 145.933 14.5738 146.56C15.4426 148.187 16.7733 150.409 18.632 153.158C20.6336 156.194 23.636 159.944 25.2307 161.956C26.4184 163.408 28.0571 165.135 29.5088 166.653L30.2897 167.477C38.2537 175.506 47.5582 182.082 57.7842 186.91C61.8411 188.768 66.0015 190.391 70.2447 191.772C74.6772 193.17 79.2055 194.243 83.7939 194.983C87.9633 195.639 92.1684 196.043 96.3864 196.193H96.5404C100.104 196.193 104.987 196.039 108.726 195.797C110.519 195.687 112.949 195.302 114.72 195.027H114.808C118.84 194.388 122.827 193.485 126.74 192.321H126.839C128.082 191.991 129.556 191.475 130.975 190.98L132.833 190.254C136.78 188.8 140.633 187.103 144.37 185.173C152.179 181.145 159.399 176.064 165.827 170.073C169.259 166.868 172.457 163.42 175.395 159.757C178.537 155.819 181.379 151.65 183.896 147.285C189.028 138.368 192.703 128.69 194.784 118.614C195.477 115.469 196.027 111.18 196.367 108.144C196.532 106.572 196.62 104.559 196.686 102.777C196.686 102.018 196.752 101.282 196.785 100.578C196.878 96.7437 196.712 92.9079 196.291 89.096C195.989 85.6997 195.464 82.3271 194.718 79.0001C192.111 68.6181 192.111 68.6181 189.527 62.0965C187.036 56.0012 183.937 50.1722 180.278 44.6979C178.298 41.6955 175.285 37.9233 173.679 35.8997C172.491 34.448 170.864 32.7323 169.423 31.2256L168.62 30.3898C164.629 26.3371 160.278 22.6559 155.621 19.392C151.034 16.1764 146.177 13.365 141.104 10.9897C137.04 9.13774 132.877 7.51485 128.632 6.12864C124.2 4.72913 119.671 3.65581 115.083 2.91728C110.914 2.25946 106.708 1.85545 102.49 1.70752C98.9159 1.70752 93.9779 1.86149 90.2167 2.10344C88.4021 2.22441 85.9606 2.59835 84.1789 2.88429C80.2307 3.50017 80.2307 3.50016 72.0813 5.61174C70.8386 5.94167 69.3759 6.45857 67.9572 6.95347L66.0985 7.59135C62.1644 9.04162 58.3227 10.7311 54.5948 12.6503C46.7736 16.6923 39.5462 21.7918 33.1161 27.8053C26.0016 34.4582 19.9189 42.1347 15.0687 50.5818C9.91891 59.5041 6.23542 69.1956 4.15889 79.286C3.45503 82.4974 2.90514 86.7535 2.57521 89.7669C2.39924 91.3726 2.31127 93.4182 2.24529 95.2108C2.24529 95.9477 2.24527 96.6625 2.15728 97.3114C2.05943 101.145 2.2211 104.981 2.64119 108.793C2.94588 112.19 3.47493 115.562 4.22488 118.889L4.57681 120.308C5.22568 122.947 5.97352 125.939 6.68837 128.27C7.16128 129.821 7.86513 131.647 8.536 133.417L9.40487 135.782C9.69081 136.442 9.99871 137.134 10.3286 137.849C23.526 165.256 69.2879 173.482 116.15 156.491H116.216L116.391 156.425L116.644 157.128C73.2581 172.954 30.6196 167.158 13.584 144.558H13.54Z" stroke="#A0A0A0" stroke-width="0.109978" stroke-miterlimit="10"/>
</g>
<path d="M9.08592 136.035C10.5156 139.334 12.6052 143.667 14.2989 146.846C15.3877 148.869 17.0813 151.498 18.3681 153.444C20.1497 156.205 22.8772 159.68 24.9668 162.243C26.3965 163.947 28.497 166.103 30.0477 167.741C34.0637 171.788 38.4324 175.469 43.1021 178.739C47.7132 181.984 52.5961 184.825 57.6962 187.23C61.7687 189.089 65.9436 190.716 70.2007 192.102C74.6499 193.509 79.197 194.586 83.805 195.324C87.9922 195.986 92.2158 196.394 96.4525 196.545C100.148 196.545 105.075 196.38 108.759 196.149C110.607 196.028 113.048 195.643 114.885 195.357C118.833 194.752 119.603 194.554 126.982 192.618C128.819 192.146 131.184 191.244 132.987 190.65C136.948 189.19 140.815 187.49 144.568 185.558C152.408 181.497 159.653 176.379 166.102 170.348C173.251 163.667 179.363 155.957 184.237 147.472C189.393 138.523 193.084 128.807 195.169 118.691C195.851 115.579 196.4 111.356 196.752 108.188C197.005 105.923 197.06 102.898 197.181 100.622C197.264 96.7733 197.098 92.9234 196.686 89.0961C196.392 85.6758 195.859 82.2802 195.092 78.9341C192.496 68.5962 192.496 68.5962 189.89 61.9975C187.398 55.8875 184.283 50.0499 180.597 44.577C178.815 41.8166 176.088 38.3412 173.998 35.7788C172.568 34.0741 170.468 31.9185 168.928 30.2799C164.907 26.2348 160.534 22.5544 155.863 19.2821C151.253 16.0404 146.374 13.1999 141.28 10.7918C137.203 8.93395 133.024 7.30736 128.764 5.91973C124.315 4.51053 119.768 3.43346 115.16 2.69738C110.973 2.03403 106.749 1.62636 102.512 1.47662C98.817 1.47662 93.901 1.64159 90.2167 1.88354C88.3691 1.99351 85.9166 2.37843 84.0909 2.66437C80.1537 3.26925 80.1537 3.26926 71.9934 5.40283C70.1677 5.87574 67.8032 6.78856 65.9995 7.38244C62.0381 8.83962 58.1706 10.5402 54.4189 12.4744C46.5749 16.5297 39.3254 21.6439 32.8742 27.6734C29.4341 30.8966 26.2258 34.3585 23.2731 38.0333C20.1202 41.9903 17.2675 46.1775 14.7388 50.5598C9.5874 59.5061 5.90054 69.2189 3.818 79.3301C3.12514 82.4424 2.57523 86.6766 2.22331 89.844C1.98135 92.0985 1.92636 95.1339 1.80538 97.3995C1.72318 101.252 1.8885 105.105 2.3003 108.936C2.59625 112.352 3.12538 115.744 3.88398 119.087C4.59884 121.892 5.50066 125.708 6.35849 128.49C7.06235 130.789 8.27209 133.769 9.08592 136.035ZM9.08592 136.035C20.9745 165.146 68.0122 174.527 116.644 156.821C68.0122 174.582 20.9635 165.146 9.08592 136.035Z" stroke="#A0A0A0" stroke-width="0.109978" stroke-miterlimit="10"/>
<mask id="mask2_134_977" style="mask-type:luminance" maskUnits="userSpaceOnUse" x="1" y="0" width="197" height="198">
<path d="M8.4151 136.2C20.4027 165.542 67.8033 175.044 116.776 157.096C67.7813 174.989 20.4027 165.487 8.4151 136.2C7.01838 132.68 4.91784 126.434 4.46693 124.476C3.92803 122.145 3.08115 119.054 2.69623 116.69C2.12434 113.203 1.59645 108.518 1.25552 104.999C0.963629 101.34 0.941576 97.6637 1.18953 94.0012C1.55368 88.9974 2.17774 84.016 3.05917 79.0771C3.67268 75.8621 4.49934 72.6914 5.53368 69.586C6.24854 67.5294 7.13937 64.78 7.95321 62.7674C8.95401 60.3149 10.3397 57.0595 11.5715 54.717C13.7894 50.2568 16.3639 45.9831 19.2699 41.9375C21.9766 38.1222 24.9575 34.509 28.1891 31.1267C31.2343 27.8956 34.5092 24.889 37.9882 22.1305C41.3366 19.4635 44.8521 17.0134 48.5131 14.795C52.1194 12.5926 55.8751 10.6449 59.7528 8.96613C61.5345 8.25128 63.866 7.18449 65.6807 6.57961C73.3791 4.02812 74.072 3.81916 77.7782 3.00533C81.4845 2.19149 86.3125 1.50962 89.9968 1.03671C91.8884 0.805756 94.3959 0.761764 96.3425 0.640788C100.633 0.515223 104.928 0.665841 109.199 1.0917C118.479 2.0285 127.58 4.27225 136.232 7.75637C141.054 9.68918 145.714 12.0062 150.166 14.685C152.629 16.1917 155.819 18.3473 158.161 20.0409C159.932 21.3277 162.153 23.2413 163.858 24.616C178.041 36.9156 188.403 53.0214 193.717 71.0267C195.038 75.6579 196.07 80.3667 196.807 85.1259C197.411 90.2772 197.734 95.4575 197.775 100.644C197.801 104.266 197.54 107.885 196.994 111.466C196.632 113.665 196.236 116.657 195.752 118.845C195.125 121.727 194.212 125.543 193.288 128.336C191.699 133.454 189.679 138.428 187.25 143.205C184.908 147.89 184.402 148.704 179.552 155.985C176.861 159.812 173.879 163.426 170.633 166.796C167.583 170.019 164.309 173.022 160.834 175.781C154.175 181.101 146.855 185.537 139.058 188.978C133.245 191.511 127.211 193.503 121.033 194.928C116.941 195.863 116.787 195.874 108.77 196.897C106.878 197.139 104.371 197.271 102.424 197.304C88.7772 197.74 75.1898 195.316 62.5353 190.188C59.875 189.147 57.2721 187.965 54.7378 186.647C51.0206 184.623 46.1595 181.709 42.6403 179.366C37.9074 176.075 33.4894 172.353 29.4429 168.247C25.0642 163.82 21.1132 158.988 17.6423 153.818C15.6737 150.838 13.2431 146.681 11.6264 143.524C10.6256 141.38 9.4159 138.388 8.4151 136.2Z" fill="white"/>
</mask>
<g mask="url(#mask2_134_977)">
<path d="M133.141 191.728C132.459 191.728 130.557 190.221 123.078 173.108C81.2865 186.086 38.1201 175.627 16.3995 148.913C11.9383 144.416 8.65231 138.89 6.83138 132.823L7.53525 132.57C9.87037 138.279 13.0351 143.612 16.9273 148.396C20.7705 152.263 25.2305 155.463 30.1247 157.865C52.1863 168.962 84.5418 168.577 116.655 156.853L116.996 156.722L117.128 157.062C119.614 163.144 121.714 168.137 123.507 172.239C125.245 171.69 126.975 171.099 128.698 170.469L129.072 170.337L129.182 170.711C135.231 191.079 133.977 191.519 133.372 191.728C133.296 191.741 133.218 191.741 133.141 191.728ZM123.793 172.877C130.7 188.692 132.591 190.727 133.097 190.958C133.317 190.452 133.405 187.559 128.577 171.261C127.015 171.832 125.421 172.371 123.793 172.877ZM21.1835 153.081C43.762 176.067 83.871 184.447 122.781 172.371C121.022 168.335 118.965 163.463 116.567 157.579C84.3659 169.259 51.9444 169.589 29.7838 158.448C26.7538 156.952 23.8739 155.17 21.1835 153.125V153.081Z" stroke="#A0A0A0" stroke-width="0.109978" stroke-miterlimit="10"/>
<path d="M108.099 189.572C89.7438 189.572 73.489 180.972 67.5172 166.345L68.1991 166.059C76.2825 185.855 103.59 194.367 129.072 185.063L129.325 185.767C122.526 188.265 115.342 189.552 108.099 189.572Z" stroke="#A0A0A0" stroke-width="0.109978" stroke-miterlimit="10"/>
<path d="M97.3983 197.161C66.0876 197.161 38.3621 182.5 28.1782 157.568L28.86 157.282C42.7502 191.277 89.6449 205.948 133.339 189.968L133.603 190.661C122.006 194.923 109.753 197.123 97.3983 197.161Z" stroke="#A0A0A0" stroke-width="0.109978" stroke-miterlimit="10"/>
<path d="M62.5463 186.812C59.885 186.826 57.2323 186.509 54.6498 185.866C44.7518 183.369 37.6583 175.968 34.2269 164.42L34.9418 164.211C38.2411 175.473 45.1697 182.709 54.8368 185.107C71.6854 189.341 94.7368 178.783 116.512 156.854L117.04 157.37C98.2891 176.298 78.5591 186.812 62.5463 186.812Z" stroke="#A0A0A0" stroke-width="0.109978" stroke-miterlimit="10"/>
<path d="M92.5813 197.435C86.7084 197.435 81.5835 190.749 77.8662 178.09L78.581 177.881C82.2433 190.188 87.0714 196.688 92.5813 196.688H92.6692C100.896 196.589 109.771 181.764 116.413 157.095L117.128 157.293C110.288 182.72 101.379 197.369 92.6802 197.479L92.5813 197.435Z" stroke="#A0A0A0" stroke-width="0.109978" stroke-miterlimit="10"/>
<path d="M133.141 191.728C132.283 191.728 129.534 189.374 116.436 157.293L116.282 156.942L116.644 156.81C167.366 138.278 200.921 97.2564 191.43 65.3518L192.133 65.1099C198.831 81.5186 198.259 99.489 190.473 117.096C179.937 140.918 157.633 160.549 129.259 170.986C135.198 191.024 133.944 191.464 133.35 191.673C133.284 191.702 133.213 191.721 133.141 191.728ZM117.26 157.37C129.589 187.515 132.514 190.672 133.097 190.958C133.317 190.452 133.405 187.515 128.467 170.876L128.368 170.546L128.687 170.425C157.028 160.076 179.277 140.522 189.802 116.789C196.653 101.304 197.863 85.5328 193.387 70.8177C197.775 102.04 165.2 139.741 117.26 157.37Z" stroke="#A0A0A0" stroke-width="0.109978" stroke-miterlimit="10"/>
<path d="M129.325 185.767L129.072 185.063C143.369 179.861 154.521 170.04 159.789 158.118C163.66 149.375 163.946 140.522 160.625 132.339L161.307 132.053C164.705 140.379 164.419 149.496 160.471 158.448C155.115 170.524 143.765 180.488 129.325 185.767Z" stroke="#A0A0A0" stroke-width="0.109978" stroke-miterlimit="10"/>
<path d="M133.658 190.65L133.394 189.957C157.853 181.027 177.066 164.156 186.184 143.678C192.782 128.666 193.321 113.335 187.613 99.346L188.295 99.071C194.08 113.247 193.585 128.765 186.865 143.986C177.671 164.64 158.293 181.654 133.658 190.65Z" stroke="#A0A0A0" stroke-width="0.109978" stroke-miterlimit="10"/>
<path d="M157.149 172.833C146.91 172.833 132.69 167.543 116.578 157.436L116.974 156.81C139.971 171.195 158.975 175.77 167.817 169.028C173.525 164.739 174.625 156.095 171.051 144.063L171.765 143.843C175.428 156.205 174.229 165.124 168.268 169.655C165.475 171.789 161.702 172.833 157.149 172.833Z" stroke="#A0A0A0" stroke-width="0.109978" stroke-miterlimit="10"/>
<path d="M128.258 157.964C124.504 157.964 120.666 157.818 116.743 157.524V156.787C148.967 159.218 175.648 151.465 188.086 136.046C194.96 127.522 196.884 117.206 193.585 106.198L194.3 105.989C197.599 117.239 195.697 127.797 188.669 136.508C177.649 150.233 155.511 157.964 128.258 157.964Z" stroke="#A0A0A0" stroke-width="0.109978" stroke-miterlimit="10"/>
<path d="M116.567 157.623L116.436 157.293C100.258 117.701 79.3399 59.3469 69.8048 27.2553L69.7058 26.9144L70.0358 26.8044C121.121 8.10818 175.901 25.3307 192.111 65.1098C201.712 97.4103 167.916 138.795 116.864 157.491L116.567 157.623ZM70.6186 27.3763C80.1647 59.4349 100.896 117.239 116.985 156.677C167.509 138.102 200.899 97.1904 191.44 65.3957C175.395 26.0566 121.242 9.05398 70.6186 27.3763Z" stroke="#A0A0A0" stroke-width="0.109978" stroke-miterlimit="10"/>
<path d="M160.625 132.339C152.541 112.543 125.234 104.02 99.7518 113.324L99.4879 112.631C125.344 103.195 153.08 111.906 161.307 132.053L160.625 132.339Z" stroke="#A0A0A0" stroke-width="0.109978" stroke-miterlimit="10"/>
<path d="M187.558 99.346C173.668 65.3518 126.762 50.6917 83.0132 66.6605L82.7602 65.9677C126.894 49.8449 174.207 64.7029 188.24 99.0711L187.558 99.346Z" stroke="#A0A0A0" stroke-width="0.109978" stroke-miterlimit="10"/>
<path d="M117.04 157.414L116.512 156.898C152.211 120.946 173.536 65.6818 164.034 33.7221L164.749 33.5132C174.317 65.7038 152.915 121.298 117.04 157.414Z" stroke="#A0A0A0" stroke-width="0.109978" stroke-miterlimit="10"/>
<path d="M117.128 157.26L116.413 157.062C128.126 113.555 129.919 52.0885 120.406 20.0519L121.121 19.8429C130.634 51.9785 128.874 113.621 117.128 157.26Z" stroke="#A0A0A0" stroke-width="0.109978" stroke-miterlimit="10"/>
<path d="M68.2432 166.62C53.803 166.62 40.5727 163.914 29.7508 158.492C17.9612 152.564 10.0318 143.667 6.78742 132.779C0.100757 116.404 0.672597 98.4332 8.45904 80.8257C19.0389 56.9055 41.4525 37.2194 70.0467 26.8045L70.4207 26.6615L70.5306 27.0464C80.0437 59.116 100.94 117.426 117.117 157.018L117.26 157.37L116.897 157.502C101.33 163.336 84.8669 166.421 68.2432 166.62ZM69.9148 27.6293C41.7604 38.0222 19.6328 57.4993 9.17393 81.1226C1.47546 98.5431 0.903578 116.316 7.52426 132.526C10.7136 143.26 18.522 151.992 30.1137 157.821C52.1093 168.874 84.2779 168.533 116.282 156.941C100.192 117.492 79.4719 59.7099 69.9148 27.6293Z" stroke="#A0A0A0" stroke-width="0.109978" stroke-miterlimit="10"/>
<path d="M67.5173 166.345C64.1189 158.019 64.4049 148.902 68.3531 139.95C73.709 127.852 85.0588 117.866 99.4879 112.598L99.7518 113.291C85.4547 118.504 74.3029 128.325 69.035 140.247C65.1637 148.979 64.8778 157.898 68.1991 166.026L67.5173 166.345Z" stroke="#A0A0A0" stroke-width="0.109978" stroke-miterlimit="10"/>
<path d="M28.1781 157.557C22.3823 143.37 22.8772 127.863 29.6078 112.631C38.747 91.9776 58.1251 74.964 82.7602 65.9678L83.0131 66.6606C58.565 75.5908 39.3409 92.4615 30.2897 112.939C23.691 127.951 23.1521 143.282 28.86 157.272L28.1781 157.557Z" stroke="#A0A0A0" stroke-width="0.109978" stroke-miterlimit="10"/>
<path d="M116.578 157.469C76.8544 132.614 36.7674 86.2366 27.2213 54.0901L27.9362 53.8811C37.4383 85.8957 77.4263 132.097 117.018 156.865L116.578 157.469Z" stroke="#A0A0A0" stroke-width="0.109978" stroke-miterlimit="10"/>
<path d="M116.743 157.524C64.4929 153.576 14.1999 124.157 4.56583 91.9335L5.28071 91.7135C14.7718 123.673 64.7788 152.861 116.743 156.788V157.524Z" stroke="#A0A0A0" stroke-width="0.109978" stroke-miterlimit="10"/>
<path d="M86.9724 178.662C50.6796 178.662 18.632 161.693 6.84238 132.812C-2.73671 100.534 31.0375 59.1272 82.1003 40.4309L82.4413 40.3099L82.5732 40.6399C98.74 80.276 119.636 138.564 129.171 170.667L129.27 170.997L128.951 171.118C115.506 176.063 101.298 178.616 86.9724 178.662ZM7.53524 132.548C23.603 171.866 77.7452 188.868 128.368 170.546C118.822 138.487 98.0912 80.6829 82.0014 41.2337C31.4775 59.82 -1.90087 100.721 7.53524 132.548Z" stroke="#A0A0A0" stroke-width="0.109978" stroke-miterlimit="10"/>
<path d="M79.9668 138.465C48.656 138.465 20.9306 123.805 10.7466 98.8731L11.4285 98.5981C25.3187 132.603 72.2243 147.252 115.908 131.284L116.172 131.976C104.574 136.235 92.3211 138.431 79.9668 138.465Z" stroke="#A0A0A0" stroke-width="0.109978" stroke-miterlimit="10"/>
<path d="M34.2269 164.42C24.6699 132.219 46.0715 76.6246 81.9464 40.5078L82.4743 41.0247C46.7644 76.9765 25.4507 132.24 34.9418 164.2L34.2269 164.42Z" stroke="#A0A0A0" stroke-width="0.109978" stroke-miterlimit="10"/>
<path d="M77.8442 178.09C68.2981 145.944 70.1457 84.301 81.8254 40.6727L82.5513 40.8597C70.8386 84.378 69.046 145.845 78.5591 177.881L77.8442 178.09Z" stroke="#A0A0A0" stroke-width="0.109978" stroke-miterlimit="10"/>
<path d="M128.577 171.261L128.467 170.876C118.943 138.806 98.0362 80.4957 81.8584 40.9036L81.7154 40.5517L82.0783 40.4197C114.401 28.6081 146.965 28.2562 169.192 39.4299C180.982 45.3578 188.922 54.255 192.155 65.1428C198.842 81.5185 198.27 99.489 190.484 117.096C179.904 141.006 157.49 160.703 128.951 171.118L128.577 171.261ZM82.6942 40.9806C98.795 80.4298 119.504 138.212 129.061 170.293C157.226 159.9 179.354 140.423 189.802 116.788C197.5 99.379 198.083 81.5955 191.451 65.3848C188.273 54.6619 180.454 45.9297 168.862 40.0898C146.888 29.048 114.709 29.378 82.6942 40.9806Z" stroke="#A0A0A0" stroke-width="0.109978" stroke-miterlimit="10"/>
<path d="M116.227 131.966L115.963 131.273C140.422 122.331 159.635 105.472 168.752 84.9939C175.351 69.9819 175.89 54.64 170.182 40.6618L170.864 40.3759C176.648 54.552 176.154 70.0699 169.434 85.3019C160.24 105.945 140.862 122.958 116.227 131.966Z" stroke="#A0A0A0" stroke-width="0.109978" stroke-miterlimit="10"/>
<path d="M171.051 144.063C161.537 112.048 121.56 65.8467 81.9684 41.0796L82.3643 40.4528C122.077 65.2968 162.164 111.686 171.721 143.832L171.051 144.063Z" stroke="#A0A0A0" stroke-width="0.109978" stroke-miterlimit="10"/>
<path d="M193.64 106.198C184.16 74.3041 134.153 45.0609 82.1773 41.1347L82.2433 40.3978C134.494 44.335 184.787 73.7652 194.355 105.989L193.64 106.198Z" stroke="#A0A0A0" stroke-width="0.109978" stroke-miterlimit="10"/>
<path d="M191.462 65.3849C189.115 59.6802 185.947 54.3487 182.059 49.559C178.213 45.6964 173.753 42.4969 168.862 40.0899C146.866 29.0041 114.467 29.3781 82.3313 41.1127L82.0014 41.2337L81.8694 40.9038C79.3839 34.822 77.2723 29.829 75.4907 25.7268C73.753 26.2767 72.0264 26.8266 70.2887 27.4974L69.9148 27.6294L69.8048 27.2555C63.756 6.88754 65.0208 6.44764 65.6257 6.22768C66.2305 6.00772 67.4843 5.53483 75.9086 24.814C117.7 11.8256 160.878 22.2955 182.587 49.0091C187.044 53.5079 190.326 59.0333 192.144 65.0989L191.462 65.3849ZM130.733 31.2917C145.184 31.2917 158.403 33.9971 169.225 39.4191C172.26 40.9289 175.144 42.7261 177.836 44.786C155.258 21.8116 115.149 13.4312 76.2385 25.4958C77.9872 29.532 80.0438 34.4041 82.4523 40.2879C97.9085 34.5357 114.242 31.496 130.733 31.3027V31.2917ZM65.8456 6.95354C65.6257 7.45944 65.5377 10.3519 70.3657 26.6506C71.9494 26.0787 73.555 25.5508 75.1497 25.0339C68.2761 9.23009 66.3515 7.19549 65.8896 6.96453L65.8456 6.95354Z" stroke="#A0A0A0" stroke-width="0.109978" stroke-miterlimit="10"/>
<path d="M170.127 40.6838C156.237 6.67856 109.342 -7.98151 65.5816 7.9983L65.3287 7.30543C109.452 -8.81735 156.775 6.0407 170.809 40.3978L170.127 40.6838Z" stroke="#A0A0A0" stroke-width="0.109978" stroke-miterlimit="10"/>
<path d="M82.4743 41.0246L81.9464 40.5077C103.942 18.3802 127.257 7.7453 144.326 12.0564C154.224 14.5529 161.329 21.9545 164.749 33.5022L164.034 33.7111C160.735 22.4494 153.817 15.2018 144.15 12.8153C127.334 8.52615 104.239 19.095 82.4743 41.0246Z" stroke="#A0A0A0" stroke-width="0.109978" stroke-miterlimit="10"/>
<path d="M82.5732 40.8598L81.8474 40.6728C88.688 15.2459 97.5962 0.596794 106.295 0.486816H106.438C112.311 0.486816 117.436 7.17348 121.165 19.8319L120.45 20.0409C116.743 7.69038 111.937 1.23468 106.438 1.23468H106.35C98.0911 1.33366 89.2159 16.1477 82.5732 40.8598Z" stroke="#A0A0A0" stroke-width="0.109978" stroke-miterlimit="10"/>
<path d="M6.84241 132.812C0.133754 116.404 0.70564 98.4332 8.49208 80.8257C19.039 57.0044 41.3315 37.3734 69.7058 26.9365C63.767 6.90946 65.0208 6.46955 65.6257 6.24959C66.2306 6.02963 68.1222 5.31477 82.5513 40.6507L82.6942 41.0026L82.3314 41.1346C31.6205 59.6549 -1.94481 100.688 7.54629 132.592L6.84241 132.812ZM65.8896 6.96444C65.6697 7.47034 65.5817 10.4068 70.5197 27.0464L70.6187 27.3764L70.2887 27.4973C41.9474 37.8463 19.6988 57.3894 9.17394 81.1226C2.32231 96.6185 1.11254 112.389 5.58865 127.104C1.18953 95.8707 33.787 58.1812 81.7155 40.5517C69.3979 10.4068 66.4615 7.25038 65.8896 6.96444Z" stroke="#A0A0A0" stroke-width="0.109978" stroke-miterlimit="10"/>
<path d="M10.7576 98.8511C4.96173 84.675 5.45662 69.157 12.1873 53.9361C21.3264 33.2822 40.6936 16.2686 65.3397 7.2724L65.5926 7.96527C41.1445 16.8955 21.9203 33.7661 12.8691 54.244C6.27045 69.256 5.73157 84.587 11.4394 98.5762L10.7576 98.8511Z" stroke="#A0A0A0" stroke-width="0.109978" stroke-miterlimit="10"/>
<path d="M27.2543 54.068C23.5811 41.7175 24.7908 32.7873 30.7406 28.2672C39.8578 21.3386 59.1699 25.9027 82.4303 40.4527L82.0344 41.0796C59.038 26.6945 40.0338 22.1304 31.1805 28.8501C25.4947 33.1832 24.3839 41.8275 27.9582 53.8591L27.2543 54.068Z" stroke="#A0A0A0" stroke-width="0.109978" stroke-miterlimit="10"/>
<path d="M4.62078 91.9335C1.32144 80.6828 3.23507 70.1249 10.2627 61.4146C22.8551 45.7978 49.7448 37.9453 82.2433 40.3978L82.1773 41.1347C49.9318 38.7042 23.2731 46.4576 10.8346 61.8765C3.97194 70.3998 2.03633 80.7158 5.33567 91.7136L4.62078 91.9335Z" stroke="#A0A0A0" stroke-width="0.109978" stroke-miterlimit="10"/>
<path d="M99.5209 197.677C86.8146 197.729 74.2206 195.297 62.4473 190.518C60.5886 189.759 57.0914 188.318 54.6168 186.954C50.8556 184.909 45.9726 181.972 42.5193 179.652C37.7866 176.344 33.3688 172.608 29.3219 168.489C24.9182 164.033 20.9484 159.169 17.4662 153.961C15.3767 150.805 12.9791 146.56 11.4285 143.634C10.6586 142.182 9.86679 140.335 9.10794 138.619L8.96496 138.3C8.64603 137.64 8.34909 136.98 8.07414 136.299C6.67742 132.768 4.55486 126.489 4.10395 124.509C3.93898 123.816 3.75202 123.046 3.55406 122.254C3.09215 120.352 2.60827 118.372 2.33332 116.755C1.72844 113.082 1.23354 108.298 0.892612 105.043C0.598839 101.384 0.5731 97.7079 0.81562 94.045C1.1987 89.0185 1.84109 84.0152 2.74023 79.055C3.35458 75.821 4.18488 72.6319 5.22568 69.5089C5.42364 68.937 5.64362 68.3102 5.86357 67.6613C6.42446 66.0116 7.06233 64.142 7.64521 62.6793C8.42606 60.7657 9.93275 57.1804 11.2855 54.6069C13.5114 50.1337 16.0855 45.8423 18.9839 41.7725C21.7085 37.9412 24.7039 34.31 27.9472 30.9066C31.0035 27.6715 34.2894 24.6613 37.7792 21.8994C41.1346 19.2164 44.6614 16.755 48.3371 14.5309C51.9691 12.3241 55.7463 10.3657 59.6429 8.66907C60.2147 8.44911 60.8416 8.18516 61.4795 7.91022C62.8872 7.31634 64.3389 6.70047 65.5926 6.28255C73.3681 3.72006 73.995 3.51111 77.7782 2.69727C81.7484 1.83944 87.1594 1.09158 90.0298 0.728656C91.3495 0.563689 92.9552 0.486706 94.5059 0.420719L96.3975 0.321743C100.707 0.195396 105.019 0.346013 109.309 0.772657C123.848 2.22905 137.887 6.8701 150.43 14.3659C152.75 15.7847 155.929 17.9402 158.447 19.7329C159.745 20.6787 161.285 21.9324 162.648 23.0322L164.177 24.2859C178.41 36.6305 188.809 52.7929 194.146 70.8616C195.474 75.514 196.51 80.245 197.247 85.0268C197.846 90.1971 198.173 95.3952 198.226 100.6C198.255 104.241 197.99 107.878 197.434 111.477C197.335 112.092 197.236 112.763 197.126 113.456C196.862 115.249 196.543 117.283 196.192 118.889C195.598 121.627 194.674 125.488 193.717 128.413C192.126 133.548 190.099 138.537 187.657 143.326C185.315 148.033 184.809 148.825 179.959 156.117C177.246 159.97 174.242 163.61 170.974 167.004C167.916 170.238 164.634 173.251 161.153 176.023C154.464 181.345 147.115 185.781 139.289 189.22C133.452 191.764 127.392 193.764 121.187 195.192C117.106 196.116 116.952 196.138 109.023 197.149H108.891C106.878 197.402 104.272 197.523 102.501 197.556L99.5209 197.677ZM12.8692 144.789C14.3649 147.538 16.3445 150.959 18.0821 153.587C21.5357 158.738 25.4684 163.551 29.8278 167.961C33.8503 172.041 38.2344 175.748 42.9262 179.036C46.4125 181.346 51.2735 184.271 55.0238 186.306C57.4763 187.636 60.9406 189.077 62.7882 189.825C75.3926 194.937 88.9288 197.35 102.523 196.907C104.633 196.883 106.74 196.751 108.836 196.512H108.957C116.853 195.511 117.007 195.489 121.055 194.565C127.216 193.151 133.232 191.167 139.025 188.637C146.788 185.221 154.075 180.811 160.702 175.517C164.163 172.765 167.426 169.773 170.468 166.565C173.694 163.209 176.661 159.614 179.343 155.809C184.215 148.484 184.721 147.725 187.041 143.062C189.47 138.306 191.487 133.349 193.068 128.248C194.014 125.378 194.927 121.518 195.521 118.79C195.873 117.217 196.181 115.194 196.455 113.412C196.554 112.708 196.664 112.037 196.763 111.422C197.305 107.866 197.566 104.273 197.544 100.677C197.491 95.505 197.165 90.3399 196.565 85.2028C195.833 80.4662 194.808 75.7795 193.497 71.1696C188.209 53.2547 177.906 37.227 163.803 24.9788L162.274 23.7141C160.922 22.6143 159.382 21.3275 158.117 20.4147C155.643 18.6331 152.442 16.4885 150.144 15.0808C133.992 5.35508 115.387 0.472803 96.5405 1.01459L94.6269 1.10258C93.0982 1.17956 91.5145 1.24555 90.2277 1.41051C87.3683 1.77344 81.9794 2.51031 78.0422 3.36814C74.3029 4.17098 73.643 4.37993 65.9446 6.93142C64.7018 7.33833 63.2611 7.94322 61.8754 8.5371L60.0167 9.30694C56.1512 10.9849 52.4066 12.9289 48.81 15.1248C45.1341 17.3244 41.6072 19.7639 38.2521 22.4273C34.784 25.1707 31.5201 28.1627 28.4861 31.3795C25.2746 34.7521 22.3086 38.3503 19.6108 42.1464C16.708 46.1787 14.1336 50.4375 11.9124 54.8818C10.5706 57.4333 9.06396 61.0076 8.29411 62.9102C7.71123 64.34 7.07336 66.2096 6.51247 67.8482C6.29252 68.4971 6.08355 69.135 5.88559 69.7069C4.84942 72.7922 4.02633 75.9449 3.42209 79.143C2.52961 84.0739 1.8945 89.048 1.51943 94.045C1.27618 97.682 1.29823 101.332 1.58541 104.966C1.88235 108.265 2.4213 112.983 3.01518 116.634C3.29013 118.273 3.77401 120.231 4.23592 122.133C4.43388 122.925 4.62084 123.695 4.78581 124.399C5.90044 128.352 7.21454 132.247 8.72304 136.068C8.99799 136.672 9.29491 137.354 9.60285 138.058C19.8528 159.493 49.8218 169.325 84.7618 164.728C95.5462 163.262 106.14 160.633 116.359 156.886L116.556 156.82L116.809 157.513C73.0052 173.537 29.9817 167.675 12.8692 144.789Z" stroke="#A0A0A0" stroke-width="0.109978" stroke-miterlimit="10"/>
</g>
<path d="M8.4151 136.2C20.4027 165.542 67.8033 175.044 116.776 157.096C67.7813 174.989 20.4027 165.487 8.4151 136.2ZM8.4151 136.2C7.01838 132.68 4.91784 126.434 4.46693 124.476C3.92803 122.145 3.08115 119.054 2.69623 116.69C2.12434 113.203 1.59645 108.518 1.25552 104.999C0.963629 101.34 0.941576 97.6637 1.18953 94.0012C1.55368 88.9974 2.17774 84.016 3.05917 79.0771C3.67268 75.8621 4.49934 72.6914 5.53368 69.586C6.24854 67.5294 7.13937 64.78 7.95321 62.7674C8.95401 60.3149 10.3397 57.0595 11.5715 54.717C13.7894 50.2568 16.3639 45.9831 19.2699 41.9375C21.9766 38.1222 24.9575 34.509 28.1891 31.1267C31.2343 27.8956 34.5092 24.889 37.9882 22.1305C41.3366 19.4635 44.8521 17.0134 48.5131 14.795C52.1194 12.5926 55.8751 10.6449 59.7528 8.96613C61.5345 8.25128 63.866 7.18449 65.6807 6.57961C73.3791 4.02812 74.072 3.81916 77.7782 3.00533C81.4845 2.19149 86.3125 1.50962 89.9968 1.03671C91.8884 0.805756 94.3959 0.761764 96.3425 0.640788C100.633 0.515223 104.928 0.665841 109.199 1.0917C118.479 2.0285 127.58 4.27225 136.232 7.75637C141.054 9.68918 145.714 12.0062 150.166 14.685C152.629 16.1917 155.819 18.3473 158.161 20.0409C159.932 21.3277 162.153 23.2413 163.858 24.616C178.041 36.9156 188.403 53.0214 193.717 71.0267C195.038 75.6579 196.07 80.3667 196.807 85.1259C197.411 90.2772 197.734 95.4575 197.775 100.644C197.801 104.266 197.54 107.885 196.994 111.466C196.632 113.665 196.236 116.657 195.752 118.845C195.125 121.727 194.212 125.543 193.288 128.336C191.699 133.454 189.679 138.428 187.25 143.205C184.908 147.89 184.402 148.704 179.552 155.985C176.861 159.812 173.879 163.426 170.633 166.796C167.583 170.019 164.309 173.022 160.834 175.781C154.175 181.101 146.855 185.537 139.058 188.978C133.245 191.511 127.211 193.503 121.033 194.928C116.941 195.863 116.787 195.874 108.77 196.897C106.878 197.139 104.371 197.271 102.424 197.304C88.7772 197.74 75.1898 195.316 62.5353 190.188C59.875 189.147 57.2721 187.965 54.7378 186.647C51.0206 184.623 46.1595 181.709 42.6403 179.366C37.9074 176.075 33.4894 172.353 29.4429 168.247C25.0642 163.82 21.1132 158.988 17.6423 153.818C15.6737 150.838 13.2431 146.681 11.6264 143.524C10.6256 141.38 9.4159 138.388 8.4151 136.2Z" stroke="#A0A0A0" stroke-width="0.109978" stroke-miterlimit="10"/>
<mask id="mask3_134_977" style="mask-type:luminance" maskUnits="userSpaceOnUse" x="1" y="0" width="197" height="198">
<path d="M133.229 191.353C127.326 193.509 121.232 195.096 115.028 196.093C108.851 197.115 102.587 197.513 96.3312 197.281C92.548 197.116 87.533 196.555 83.7608 196.06C81.7152 195.797 79.0317 195.214 77.0411 194.73C75.0505 194.246 72.1031 193.531 70.0465 192.816C66.2192 191.485 61.1603 189.517 57.454 187.9C47.0817 183.037 37.6449 176.389 29.5746 168.258C28.0129 166.608 25.8903 164.442 24.4606 162.682C22.3491 160.109 19.6106 156.611 17.7739 153.884C16.4762 151.915 14.7716 149.265 13.6718 147.186C11.9671 143.986 9.86652 139.62 8.41481 136.287C7.94519 135.132 7.53409 133.954 7.18306 132.757C-2.35204 100.589 31.3122 59.3798 82.2431 40.7605C31.3452 59.3578 -2.31901 100.589 7.21608 132.669C7.56712 133.866 7.97822 135.044 8.44783 136.199C7.623 133.923 6.41324 130.921 5.69838 128.6C4.84055 125.796 3.92772 122.001 3.21287 119.131C2.4461 115.758 1.90961 112.337 1.60716 108.892C1.19516 105.031 1.02984 101.149 1.11225 97.2673C1.23322 94.9907 1.28823 91.9333 1.54118 89.6568C1.89311 86.4674 2.45401 82.2113 3.13587 79.0769C5.23585 68.8864 8.94846 59.0962 14.1337 50.0757C19.0393 41.5242 25.2007 33.7576 32.412 27.0353C38.9043 20.958 46.2019 15.803 54.0997 11.7153C57.8725 9.76853 61.7622 8.05693 65.7464 6.59036C67.561 5.99648 69.9475 5.08366 71.7952 4.59976C80.0105 2.4002 80.0105 2.40019 83.8927 1.8393C85.7404 1.55336 88.2039 1.16845 90.0625 1.04747C93.7687 0.816518 98.7398 0.65155 102.457 0.65155C106.738 0.794176 111.006 1.20188 115.236 1.87231C119.879 2.60891 124.46 3.69341 128.94 5.11666C133.23 6.51343 137.438 8.15102 141.543 10.0217C148.88 13.4841 155.762 17.8391 162.032 22.9881C168.125 28.223 168.125 28.223 174.515 35.2726C176.975 38.0217 179.211 40.9639 181.201 44.0709C184.01 48.5319 186.58 53.1391 188.9 57.8731C190.802 62.1358 192.444 66.5099 193.816 70.9715C194.498 73.281 195.311 76.3824 195.784 78.7359C196.389 81.7823 196.961 85.8955 197.379 88.9749C197.863 92.826 198.028 96.7103 197.874 100.589C197.676 105.131 197.126 111.179 196.444 115.678C195.914 119.151 195.128 122.581 194.091 125.938C193.42 128.017 192.606 130.811 191.825 132.856C190.813 135.518 189.329 139.026 188.108 141.599C185.876 146.292 183.264 150.794 180.299 155.061C177.567 159.037 174.53 162.795 171.215 166.3C168.11 169.617 164.773 172.708 161.229 175.55C157.839 178.283 154.272 180.789 150.55 183.05C148.857 184.007 146.657 185.382 144.898 186.217C141.466 187.867 136.836 189.968 133.273 191.331L133.229 191.353Z" fill="white"/>
</mask>
<g mask="url(#mask3_134_977)">
<path d="M133.141 191.728C132.459 191.728 130.557 190.221 123.078 173.108C81.2865 186.086 38.1201 175.627 16.3995 148.913C11.9383 144.416 8.65231 138.89 6.83138 132.823L7.53525 132.57C9.87037 138.279 13.0351 143.612 16.9273 148.396C20.7705 152.263 25.2305 155.463 30.1247 157.865C52.1863 168.962 84.5418 168.577 116.655 156.853L116.996 156.722L117.128 157.062C119.614 163.144 121.714 168.137 123.507 172.239C125.245 171.69 126.975 171.099 128.698 170.469L129.072 170.337L129.182 170.711C135.231 191.079 133.977 191.519 133.372 191.728C133.296 191.741 133.218 191.741 133.141 191.728ZM123.793 172.877C130.7 188.692 132.591 190.727 133.097 190.958C133.317 190.452 133.405 187.559 128.577 171.261C127.015 171.832 125.421 172.371 123.793 172.877ZM21.1835 153.081C43.762 176.067 83.871 184.447 122.781 172.371C121.022 168.335 118.965 163.463 116.567 157.579C84.3659 169.259 51.9444 169.589 29.7838 158.448C26.7538 156.952 23.8739 155.17 21.1835 153.125V153.081Z" stroke="#A0A0A0" stroke-width="0.109978" stroke-miterlimit="10"/>
<path d="M97.3983 197.161C66.0876 197.161 38.3621 182.5 28.1782 157.568L28.86 157.282C42.7502 191.277 89.6449 205.948 133.339 189.968L133.603 190.661C122.006 194.923 109.753 197.123 97.3983 197.161Z" stroke="#A0A0A0" stroke-width="0.109978" stroke-miterlimit="10"/>
<path d="M62.5463 186.812C59.885 186.826 57.2323 186.509 54.6498 185.866C44.7518 183.369 37.6583 175.968 34.2269 164.42L34.9418 164.211C38.2411 175.473 45.1697 182.709 54.8368 185.107C71.6854 189.341 94.7368 178.783 116.512 156.854L117.04 157.37C98.2891 176.298 78.5591 186.812 62.5463 186.812Z" stroke="#A0A0A0" stroke-width="0.109978" stroke-miterlimit="10"/>
<path d="M92.5813 197.435C86.7084 197.435 81.5835 190.749 77.8662 178.09L78.581 177.881C82.2433 190.188 87.0714 196.688 92.5813 196.688H92.6692C100.896 196.589 109.771 181.764 116.413 157.095L117.128 157.293C110.288 182.72 101.379 197.369 92.6802 197.479L92.5813 197.435Z" stroke="#A0A0A0" stroke-width="0.109978" stroke-miterlimit="10"/>
<path d="M133.141 191.728C132.283 191.728 129.534 189.374 116.436 157.293L116.282 156.942L116.644 156.81C167.366 138.278 200.921 97.2564 191.43 65.3518L192.133 65.1099C198.831 81.5186 198.259 99.489 190.473 117.096C179.937 140.918 157.633 160.549 129.259 170.986C135.198 191.024 133.944 191.464 133.35 191.673C133.284 191.702 133.213 191.721 133.141 191.728ZM117.26 157.37C129.589 187.515 132.514 190.672 133.097 190.958C133.317 190.452 133.405 187.515 128.467 170.876L128.368 170.546L128.687 170.425C157.028 160.076 179.277 140.522 189.802 116.789C196.653 101.304 197.863 85.5328 193.387 70.8177C197.775 102.04 165.2 139.741 117.26 157.37Z" stroke="#A0A0A0" stroke-width="0.109978" stroke-miterlimit="10"/>
<path d="M133.658 190.65L133.394 189.957C157.853 181.027 177.066 164.156 186.184 143.678C192.782 128.666 193.321 113.335 187.613 99.346L188.295 99.071C194.08 113.247 193.585 128.765 186.865 143.986C177.671 164.64 158.293 181.654 133.658 190.65Z" stroke="#A0A0A0" stroke-width="0.109978" stroke-miterlimit="10"/>
<path d="M157.149 172.833C146.91 172.833 132.69 167.543 116.578 157.436L116.974 156.81C139.971 171.195 158.975 175.77 167.817 169.028C173.525 164.739 174.625 156.095 171.051 144.063L171.765 143.843C175.428 156.205 174.229 165.124 168.268 169.655C165.475 171.789 161.702 172.833 157.149 172.833Z" stroke="#A0A0A0" stroke-width="0.109978" stroke-miterlimit="10"/>
<path d="M128.258 157.964C124.504 157.964 120.666 157.818 116.743 157.524V156.787C148.967 159.218 175.648 151.465 188.086 136.046C194.96 127.522 196.884 117.206 193.585 106.198L194.3 105.989C197.599 117.239 195.697 127.797 188.669 136.508C177.649 150.233 155.511 157.964 128.258 157.964Z" stroke="#A0A0A0" stroke-width="0.109978" stroke-miterlimit="10"/>
<path d="M116.567 157.623L116.436 157.293C100.258 117.701 79.3399 59.3469 69.8048 27.2553L69.7058 26.9144L70.0358 26.8044C121.121 8.10818 175.901 25.3307 192.111 65.1098C201.712 97.4103 167.916 138.795 116.864 157.491L116.567 157.623ZM70.6186 27.3763C80.1647 59.4349 100.896 117.239 116.985 156.677C167.509 138.102 200.899 97.1904 191.44 65.3957C175.395 26.0566 121.242 9.05398 70.6186 27.3763Z" stroke="#A0A0A0" stroke-width="0.109978" stroke-miterlimit="10"/>
<path d="M187.558 99.346C173.668 65.3518 126.762 50.6917 83.0132 66.6605L82.7602 65.9677C126.894 49.8449 174.207 64.7029 188.24 99.0711L187.558 99.346Z" stroke="#A0A0A0" stroke-width="0.109978" stroke-miterlimit="10"/>
<path d="M117.04 157.414L116.512 156.898C152.211 120.946 173.536 65.6818 164.034 33.7221L164.749 33.5132C174.317 65.7038 152.915 121.298 117.04 157.414Z" stroke="#A0A0A0" stroke-width="0.109978" stroke-miterlimit="10"/>
<path d="M117.128 157.26L116.413 157.062C128.126 113.555 129.919 52.0885 120.406 20.0519L121.121 19.8429C130.634 51.9785 128.874 113.621 117.128 157.26Z" stroke="#A0A0A0" stroke-width="0.109978" stroke-miterlimit="10"/>
<path d="M68.2432 166.62C53.803 166.62 40.5727 163.914 29.7508 158.492C17.9612 152.564 10.0318 143.667 6.78742 132.779C0.100757 116.404 0.672597 98.4332 8.45904 80.8257C19.0389 56.9055 41.4525 37.2194 70.0467 26.8045L70.4207 26.6615L70.5306 27.0464C80.0437 59.116 100.94 117.426 117.117 157.018L117.26 157.37L116.897 157.502C101.33 163.336 84.8669 166.421 68.2432 166.62ZM69.9148 27.6293C41.7604 38.0222 19.6328 57.4993 9.17393 81.1226C1.47546 98.5431 0.903578 116.316 7.52426 132.526C10.7136 143.26 18.522 151.992 30.1137 157.821C52.1093 168.874 84.2779 168.533 116.282 156.941C100.192 117.492 79.4719 59.7099 69.9148 27.6293Z" stroke="#A0A0A0" stroke-width="0.109978" stroke-miterlimit="10"/>
<path d="M28.1781 157.557C22.3823 143.37 22.8772 127.863 29.6078 112.631C38.747 91.9776 58.1251 74.964 82.7602 65.9678L83.0131 66.6606C58.565 75.5908 39.3409 92.4615 30.2897 112.939C23.691 127.951 23.1521 143.282 28.86 157.272L28.1781 157.557Z" stroke="#A0A0A0" stroke-width="0.109978" stroke-miterlimit="10"/>
<path d="M116.578 157.469C76.8544 132.614 36.7674 86.2366 27.2213 54.0901L27.9362 53.8811C37.4383 85.8957 77.4263 132.097 117.018 156.865L116.578 157.469Z" stroke="#A0A0A0" stroke-width="0.109978" stroke-miterlimit="10"/>
<path d="M116.743 157.524C64.4929 153.576 14.1999 124.157 4.56583 91.9335L5.28071 91.7135C14.7718 123.673 64.7788 152.861 116.743 156.788V157.524Z" stroke="#A0A0A0" stroke-width="0.109978" stroke-miterlimit="10"/>
<path d="M86.9724 178.662C50.6796 178.662 18.632 161.693 6.84238 132.812C-2.73671 100.534 31.0375 59.1272 82.1003 40.4309L82.4413 40.3099L82.5732 40.6399C98.74 80.276 119.636 138.564 129.171 170.667L129.27 170.997L128.951 171.118C115.506 176.063 101.298 178.616 86.9724 178.662ZM7.53524 132.548C23.603 171.866 77.7452 188.868 128.368 170.546C118.822 138.487 98.0912 80.6829 82.0014 41.2337C31.4775 59.82 -1.90087 100.721 7.53524 132.548Z" stroke="#A0A0A0" stroke-width="0.109978" stroke-miterlimit="10"/>
<path d="M79.9668 138.465C48.656 138.465 20.9306 123.805 10.7466 98.8731L11.4285 98.5981C25.3187 132.603 72.2243 147.252 115.908 131.284L116.172 131.976C104.574 136.235 92.3211 138.431 79.9668 138.465Z" stroke="#A0A0A0" stroke-width="0.109978" stroke-miterlimit="10"/>
<path d="M78.2621 89.0741C59.9068 89.0741 43.652 80.4738 37.6692 65.8467L38.3621 65.5608C46.4454 85.3568 73.753 93.8691 99.2349 84.565L99.4879 85.2689C92.6888 87.7658 85.5052 89.0536 78.2621 89.0741Z" stroke="#A0A0A0" stroke-width="0.109978" stroke-miterlimit="10"/>
<path d="M34.2269 164.42C24.6699 132.219 46.0715 76.6246 81.9464 40.5078L82.4743 41.0247C46.7644 76.9765 25.4507 132.24 34.9418 164.2L34.2269 164.42Z" stroke="#A0A0A0" stroke-width="0.109978" stroke-miterlimit="10"/>
<path d="M77.8442 178.09C68.2981 145.944 70.1457 84.301 81.8254 40.6727L82.5513 40.8597C70.8386 84.378 69.046 145.845 78.5591 177.881L77.8442 178.09Z" stroke="#A0A0A0" stroke-width="0.109978" stroke-miterlimit="10"/>
<path d="M128.577 171.261L128.467 170.876C118.943 138.806 98.0362 80.4957 81.8584 40.9036L81.7154 40.5517L82.0783 40.4197C114.401 28.6081 146.965 28.2562 169.192 39.4299C180.982 45.3578 188.922 54.255 192.155 65.1428C198.842 81.5185 198.27 99.489 190.484 117.096C179.904 141.006 157.49 160.703 128.951 171.118L128.577 171.261ZM82.6942 40.9806C98.795 80.4298 119.504 138.212 129.061 170.293C157.226 159.9 179.354 140.423 189.802 116.788C197.5 99.379 198.083 81.5955 191.451 65.3848C188.273 54.6619 180.454 45.9297 168.862 40.0898C146.888 29.048 114.709 29.378 82.6942 40.9806Z" stroke="#A0A0A0" stroke-width="0.109978" stroke-miterlimit="10"/>
<path d="M116.227 131.966L115.963 131.273C140.422 122.331 159.635 105.472 168.752 84.9939C175.351 69.9819 175.89 54.64 170.182 40.6618L170.864 40.3759C176.648 54.552 176.154 70.0699 169.434 85.3019C160.24 105.945 140.862 122.958 116.227 131.966Z" stroke="#A0A0A0" stroke-width="0.109978" stroke-miterlimit="10"/>
<path d="M99.4879 85.2909L99.2349 84.5871C113.477 79.3851 124.673 69.564 129.952 57.6424C133.812 48.9102 134.098 40.0459 130.777 31.8636L131.469 31.5776C134.868 39.903 134.582 49.0202 130.634 57.9724C125.278 70.0479 113.928 80.023 99.4879 85.2909Z" stroke="#A0A0A0" stroke-width="0.109978" stroke-miterlimit="10"/>
<path d="M171.051 144.063C161.537 112.048 121.56 65.8467 81.9684 41.0796L82.3643 40.4528C122.077 65.2968 162.164 111.686 171.721 143.832L171.051 144.063Z" stroke="#A0A0A0" stroke-width="0.109978" stroke-miterlimit="10"/>
<path d="M193.64 106.198C184.16 74.3041 134.153 45.0609 82.1773 41.1347L82.2433 40.3978C134.494 44.335 184.787 73.7652 194.355 105.989L193.64 106.198Z" stroke="#A0A0A0" stroke-width="0.109978" stroke-miterlimit="10"/>
<path d="M191.462 65.3849C189.115 59.6802 185.947 54.3487 182.059 49.559C178.213 45.6964 173.753 42.4969 168.862 40.0899C146.866 29.0041 114.467 29.3781 82.3313 41.1127L82.0014 41.2337L81.8694 40.9038C79.3839 34.822 77.2723 29.829 75.4907 25.7268C73.753 26.2767 72.0264 26.8266 70.2887 27.4974L69.9148 27.6294L69.8048 27.2555C63.756 6.88754 65.0208 6.44764 65.6257 6.22768C66.2305 6.00772 67.4843 5.53483 75.9086 24.814C117.7 11.8256 160.878 22.2955 182.587 49.0091C187.044 53.5079 190.326 59.0333 192.144 65.0989L191.462 65.3849ZM130.733 31.2917C145.184 31.2917 158.403 33.9971 169.225 39.4191C172.26 40.9289 175.144 42.7261 177.836 44.786C155.258 21.8116 115.149 13.4312 76.2385 25.4958C77.9872 29.532 80.0438 34.4041 82.4523 40.2879C97.9085 34.5357 114.242 31.496 130.733 31.3027V31.2917ZM65.8456 6.95354C65.6257 7.45944 65.5377 10.3519 70.3657 26.6506C71.9494 26.0787 73.555 25.5508 75.1497 25.0339C68.2761 9.23009 66.3515 7.19549 65.8896 6.96453L65.8456 6.95354Z" stroke="#A0A0A0" stroke-width="0.109978" stroke-miterlimit="10"/>
<path d="M170.127 40.6838C156.237 6.67856 109.342 -7.98151 65.5816 7.9983L65.3287 7.30543C109.452 -8.81735 156.775 6.0407 170.809 40.3978L170.127 40.6838Z" stroke="#A0A0A0" stroke-width="0.109978" stroke-miterlimit="10"/>
<path d="M130.788 31.8855C122.704 12.0894 95.3857 3.57713 69.9038 12.8813L69.6508 12.1774C95.4957 2.7303 123.232 11.4516 131.469 31.5995L130.788 31.8855Z" stroke="#A0A0A0" stroke-width="0.109978" stroke-miterlimit="10"/>
<path d="M82.4743 41.0246L81.9464 40.5077C103.942 18.3802 127.257 7.7453 144.326 12.0564C154.224 14.5529 161.329 21.9545 164.749 33.5022L164.034 33.7111C160.735 22.4494 153.817 15.2018 144.15 12.8153C127.334 8.52615 104.239 19.095 82.4743 41.0246Z" stroke="#A0A0A0" stroke-width="0.109978" stroke-miterlimit="10"/>
<path d="M82.5732 40.8598L81.8474 40.6728C88.688 15.2459 97.5962 0.596794 106.295 0.486816H106.438C112.311 0.486816 117.436 7.17348 121.165 19.8319L120.45 20.0409C116.743 7.69038 111.937 1.23468 106.438 1.23468H106.35C98.0911 1.33366 89.2159 16.1477 82.5732 40.8598Z" stroke="#A0A0A0" stroke-width="0.109978" stroke-miterlimit="10"/>
<path d="M6.84241 132.812C0.133754 116.404 0.70564 98.4332 8.49208 80.8257C19.039 57.0044 41.3315 37.3734 69.7058 26.9365C63.767 6.90946 65.0208 6.46955 65.6257 6.24959C66.2306 6.02963 68.1222 5.31477 82.5513 40.6507L82.6942 41.0026L82.3314 41.1346C31.6205 59.6549 -1.94481 100.688 7.54629 132.592L6.84241 132.812ZM65.8896 6.96444C65.6697 7.47034 65.5817 10.4068 70.5197 27.0464L70.6187 27.3764L70.2887 27.4973C41.9474 37.8463 19.6988 57.3894 9.17394 81.1226C2.32231 96.6185 1.11254 112.389 5.58865 127.104C1.18953 95.8707 33.787 58.1812 81.7155 40.5517C69.3979 10.4068 66.4615 7.25038 65.8896 6.96444Z" stroke="#A0A0A0" stroke-width="0.109978" stroke-miterlimit="10"/>
<path d="M10.7576 98.8511C4.96173 84.675 5.45662 69.157 12.1873 53.9361C21.3264 33.2822 40.6936 16.2686 65.3397 7.2724L65.5926 7.96527C41.1445 16.8955 21.9203 33.7661 12.8691 54.244C6.27045 69.256 5.73157 84.587 11.4394 98.5762L10.7576 98.8511Z" stroke="#A0A0A0" stroke-width="0.109978" stroke-miterlimit="10"/>
<path d="M37.6692 65.8687C34.2708 57.5433 34.5678 48.4262 38.516 39.474C43.8719 27.3764 55.2217 17.4014 69.6508 12.1224L69.9038 12.8263C55.6616 18.0283 44.4658 27.8493 39.1979 39.7709C35.3266 48.5032 35.0407 57.4224 38.362 65.5498L37.6692 65.8687Z" stroke="#A0A0A0" stroke-width="0.109978" stroke-miterlimit="10"/>
<path d="M27.2543 54.068C23.5811 41.7175 24.7908 32.7873 30.7406 28.2672C39.8578 21.3386 59.1699 25.9027 82.4303 40.4527L82.0344 41.0796C59.038 26.6945 40.0338 22.1304 31.1805 28.8501C25.4947 33.1832 24.3839 41.8275 27.9582 53.8591L27.2543 54.068Z" stroke="#A0A0A0" stroke-width="0.109978" stroke-miterlimit="10"/>
<path d="M4.62078 91.9335C1.32144 80.6828 3.23507 70.1249 10.2627 61.4146C22.8551 45.7978 49.7448 37.9453 82.2433 40.3978L82.1773 41.1347C49.9318 38.7042 23.2731 46.4576 10.8346 61.8765C3.97194 70.3998 2.03633 80.7158 5.33567 91.7136L4.62078 91.9335Z" stroke="#A0A0A0" stroke-width="0.109978" stroke-miterlimit="10"/>
<path d="M99.6748 197.721C98.3221 197.721 97.1784 197.721 96.2876 197.644C93.0762 197.501 88.3581 197.039 83.6841 196.424C81.2755 196.105 78.1851 195.379 76.9314 195.082C75.1058 194.642 72.0594 193.905 69.9038 193.157C65.6477 191.673 60.6876 189.737 57.2783 188.23C46.8659 183.319 37.3962 176.619 29.2999 168.434L28.5301 167.631C27.0564 166.092 25.3957 164.332 24.1309 162.847C22.4923 160.846 19.4569 157.04 17.4223 153.961C15.5307 151.091 14.123 148.891 13.2981 147.23C11.5935 144.019 9.47093 139.631 8.04121 136.299C7.75527 135.595 7.48028 134.869 7.23833 134.099C7.23833 134.033 7.18332 133.956 7.15032 133.879C6.46846 132.086 5.76466 130.228 5.28075 128.644C4.5549 126.269 3.79604 123.222 3.13617 120.55L2.78423 119.153C2.01743 115.762 1.48096 112.323 1.17853 108.859C0.75352 104.985 0.584563 101.087 0.672671 97.1905C0.672671 96.5416 0.73862 95.8377 0.771613 95.1119C0.8376 93.2752 0.925569 91.1966 1.10153 89.547C1.44247 86.4896 2.00338 82.1565 2.70724 78.9231C4.79952 68.7026 8.51231 58.8823 13.705 49.8339C16.2604 45.3999 19.1464 41.1647 22.3384 37.1644C25.3192 33.4488 28.5607 29.9499 32.0384 26.6945C38.5656 20.5892 45.9 15.4085 53.836 11.2976C57.632 9.34554 61.5435 7.6267 65.5487 6.15064L67.3963 5.51277C68.837 5.00687 70.3327 4.48997 71.6085 4.14904C79.8458 2.00446 79.8458 2.00447 83.805 1.38859C85.6527 1.10265 88.1382 0.717725 90.0078 0.596749C93.769 0.354798 98.674 0.189819 102.281 0.189819H102.424C106.705 0.348674 110.972 0.759985 115.204 1.42158C119.868 2.1837 124.47 3.28643 128.973 4.72093C133.28 6.12411 137.502 7.77281 141.62 9.65893C148.995 13.1204 155.908 17.4912 162.197 22.6693C168.312 27.9263 168.312 27.9263 174.713 34.9869C177.191 37.7712 179.442 40.7502 181.444 43.8951C184.257 48.3688 186.827 52.9909 189.142 57.7413C191.05 62.0064 192.696 66.3844 194.069 70.8507C194.718 73.0503 195.565 76.2286 196.06 78.6921C196.686 81.8595 197.302 86.2916 197.665 88.9421C198.148 92.8191 198.313 96.7289 198.16 100.633C197.951 105.373 197.368 111.455 196.73 115.755C196.195 119.251 195.401 122.703 194.355 126.082C194.157 126.687 193.948 127.346 193.739 128.039C193.222 129.678 192.639 131.548 192.089 132.999C190.99 135.903 189.516 139.345 188.361 141.798C186.104 146.488 183.474 150.989 180.498 155.259C177.751 159.244 174.703 163.012 171.381 166.532C165.256 173.05 158.274 178.707 150.628 183.347L148.934 184.326C147.581 185.118 146.174 185.943 144.953 186.526C143.347 187.295 137.771 189.935 133.295 191.651L133.119 191.321L133.251 191.662C122.458 195.615 111.059 197.658 99.5649 197.699L99.6748 197.721ZM8.76704 136.057C10.1968 139.356 12.2973 143.755 13.991 146.923C14.8598 148.55 16.1905 150.794 18.0821 153.587C20.0947 156.645 23.1191 160.428 24.7468 162.385C25.9456 163.859 27.6063 165.597 29.069 167.136L29.8388 167.939C33.8632 172.014 38.2472 175.717 42.9372 179.003C47.5605 182.263 52.4583 185.115 57.5753 187.526C60.9736 189.022 65.9006 190.947 70.1458 192.42C72.2683 193.157 75.2928 193.894 77.1074 194.323C78.3172 194.62 81.4075 195.335 83.7831 195.654C88.4461 196.27 93.1312 196.754 96.3205 196.864C102.576 197.1 108.84 196.705 115.017 195.687C121.198 194.69 127.271 193.106 133.152 190.958C136.188 189.792 140.51 187.889 144.755 185.855C145.943 185.283 147.339 184.469 148.681 183.655L150.386 182.665C154.09 180.411 157.642 177.916 161.021 175.198C164.53 172.364 167.838 169.288 170.919 165.993C174.219 162.496 177.249 158.753 179.981 154.797C182.943 150.576 185.566 146.126 187.822 141.49C188.922 139.07 190.429 135.65 191.529 132.768C192.078 131.339 192.628 129.469 193.167 127.841C193.387 127.159 193.596 126.489 193.794 125.884C194.824 122.544 195.607 119.133 196.137 115.678C196.774 111.4 197.346 105.351 197.566 100.633C197.708 96.7729 197.542 92.9078 197.071 89.0741C196.708 86.4346 196.093 82.0135 195.477 78.8681C194.993 76.4266 194.146 73.2702 193.508 71.1697C192.148 66.7248 190.514 62.3686 188.614 58.1263C186.301 53.3996 183.731 48.803 180.916 44.357C178.955 41.2526 176.748 38.3104 174.317 35.5588C167.949 28.5312 167.949 28.5312 161.867 23.3072C155.627 18.1795 148.774 13.8463 141.466 10.4068C137.356 8.52749 133.14 6.88611 128.841 5.49077C124.394 4.05544 119.847 2.95262 115.237 2.19143C111.038 1.52964 106.804 1.12198 102.556 0.970671H102.413C98.8281 0.970671 93.934 1.12464 90.1837 1.36659C88.3471 1.48757 85.8836 1.8725 84.08 2.14744C80.1208 2.76332 80.1208 2.76331 71.9824 4.90789C70.7396 5.22682 69.255 5.75472 67.8252 6.24962L65.9666 6.88749C61.9556 8.37898 58.0402 10.1163 54.2429 12.0895C46.3801 16.1637 39.1127 21.2961 32.6433 27.3434C25.4567 34.0397 19.3206 41.7812 14.4419 50.3068C9.25924 59.2855 5.54639 69.0354 3.44407 79.187C2.74021 82.3984 2.19038 86.6985 1.84944 89.7449C1.67348 91.3616 1.59644 93.4292 1.51946 95.2438C1.51946 95.9807 1.5195 96.6846 1.43152 97.3334C1.34574 101.187 1.52209 105.041 1.95939 108.87C2.26244 112.296 2.79149 115.698 3.54308 119.054L3.89502 120.451C4.42291 122.562 4.99476 124.85 5.57765 126.94C5.33122 125.098 5.20635 123.243 5.20376 121.386C5.20376 91.3286 36.8554 56.9495 82.0894 40.4308L82.3424 41.1236C37.4053 57.5324 5.94059 91.6146 5.94059 121.353C5.9318 125.153 6.47264 128.935 7.5463 132.581C7.67827 133.032 7.82119 133.483 7.97516 133.923C8.25011 134.671 8.55808 135.397 8.76704 136.057Z" stroke="#A0A0A0" stroke-width="0.109978" stroke-miterlimit="10"/>
</g>
<path d="M133.229 191.353C127.326 193.509 121.232 195.096 115.028 196.093C108.851 197.115 102.587 197.513 96.3312 197.281C92.548 197.116 87.533 196.555 83.7608 196.06C81.7152 195.797 79.0317 195.214 77.0411 194.73C75.0505 194.246 72.1031 193.531 70.0465 192.816C66.2192 191.485 61.1603 189.517 57.454 187.9C47.0817 183.037 37.6449 176.389 29.5746 168.258C28.0129 166.608 25.8903 164.442 24.4606 162.682C22.3491 160.109 19.6106 156.611 17.7739 153.884C16.4762 151.915 14.7716 149.265 13.6718 147.186C11.9671 143.986 9.86652 139.62 8.41481 136.287C7.94519 135.132 7.53409 133.954 7.18306 132.757C-2.35204 100.589 31.3122 59.3798 82.2431 40.7605C31.3452 59.3578 -2.31901 100.589 7.21608 132.669C7.56712 133.866 7.97822 135.044 8.44783 136.199C7.623 133.923 6.41324 130.921 5.69838 128.6C4.84055 125.796 3.92772 122.001 3.21287 119.131C2.4461 115.758 1.90961 112.337 1.60716 108.892C1.19516 105.031 1.02984 101.149 1.11225 97.2672C1.23322 94.9907 1.28823 91.9333 1.54118 89.6568C1.89311 86.4674 2.45401 82.2112 3.13587 79.0769C5.23585 68.8864 8.94846 59.0962 14.1337 50.0757C19.0393 41.5242 25.2007 33.7576 32.412 27.0353C38.9043 20.958 46.2019 15.803 54.0997 11.7153C57.8725 9.76852 61.7622 8.05693 65.7464 6.59036C67.561 5.99648 69.9475 5.08366 71.7952 4.59976C80.0105 2.4002 80.0105 2.40019 83.8927 1.8393C85.7404 1.55336 88.2039 1.16845 90.0625 1.04747C93.7687 0.816518 98.7398 0.65155 102.457 0.65155C106.738 0.794176 111.006 1.20188 115.236 1.87231C119.879 2.60891 124.46 3.69341 128.94 5.11666C133.23 6.51343 137.438 8.15102 141.543 10.0217C148.88 13.4841 155.762 17.8391 162.032 22.9881C168.125 28.223 168.125 28.223 174.515 35.2726C176.975 38.0217 179.211 40.9639 181.201 44.0709C184.01 48.5319 186.58 53.1391 188.9 57.8731C190.802 62.1358 192.444 66.5099 193.816 70.9715C194.498 73.281 195.311 76.3824 195.784 78.7359C196.389 81.7823 196.961 85.8955 197.379 88.9749C197.863 92.826 198.028 96.7103 197.874 100.589C197.676 105.131 197.126 111.179 196.444 115.678C195.914 119.151 195.128 122.581 194.091 125.938C193.42 128.017 192.606 130.811 191.825 132.856C190.813 135.518 189.329 139.026 188.108 141.599C185.876 146.292 183.264 150.794 180.299 155.061C177.567 159.037 174.53 162.795 171.215 166.3C168.11 169.617 164.773 172.708 161.229 175.55C157.839 178.283 154.272 180.789 150.55 183.05C148.857 184.007 146.657 185.382 144.898 186.217C141.466 187.867 136.836 189.968 133.273 191.331L133.229 191.353Z" stroke="#A0A0A0" stroke-width="0.109978" stroke-miterlimit="10"/>
</svg>
