<svg width="26" height="26" viewBox="0 0 26 26" fill="none" xmlns="http://www.w3.org/2000/svg">
<path fill-rule="evenodd" clip-rule="evenodd" d="M26 13L25.9981 13L25.9922 13.0001L25.9825 13.0003L25.9688 13.0008L25.9513 13.0016L25.9299 13.0028L25.9047 13.0044L25.8757 13.0066L25.8428 13.0094L25.8061 13.0129L25.7657 13.0171L25.7215 13.0223L25.6737 13.0283L25.6221 13.0353L25.567 13.0433L25.5082 13.0525L25.4459 13.0629L25.38 13.0745L25.3107 13.0875L25.238 13.1019L25.1619 13.1177L25.0825 13.1351L24.9998 13.154L24.9139 13.1746L24.8249 13.1968L24.7328 13.2208L24.6376 13.2466L24.5395 13.2743L24.4386 13.3039L24.3348 13.3355L24.2282 13.369L24.119 13.4046L24.0072 13.4423L23.8928 13.4821L23.776 13.5241L23.6568 13.5683L23.5353 13.6147L23.4117 13.6634L23.2859 13.7144L23.158 13.7677L23.0282 13.8233L22.8965 13.8813L22.7631 13.9417L22.6279 14.0045L22.4911 14.0698L22.3528 14.1374L22.2131 14.2075L22.0721 14.2801L21.9298 14.3551L21.7863 14.4325L21.6418 14.5124L21.4963 14.5947L21.35 14.6795L21.2028 14.7667L21.055 14.8563L20.9065 14.9484L20.7576 15.0428L20.6082 15.1396L20.4585 15.2388L20.3086 15.3402L20.1585 15.444L20.0084 15.55L19.8584 15.6583L19.7084 15.7688L19.5587 15.8814L19.4093 15.9962L19.2603 16.113L19.1117 16.2319L18.9638 16.3528L18.8165 16.4757L18.6699 16.6004L18.5241 16.727L18.3792 16.8553L18.2353 16.9854L18.0924 17.1172L17.9506 17.2506L17.8101 17.3855L17.6708 17.5219L17.5329 17.6598L17.3963 17.7989L17.2613 17.9394L17.1278 18.081L16.9959 18.2238L16.8657 18.3677L16.7371 18.5125L16.6104 18.6582L16.4855 18.8047L16.3625 18.952L16.2415 19.0999L16.1224 19.2484L16.0054 19.3974L15.8905 19.5468L15.7777 19.6965L15.667 19.8464L15.5586 19.9965L15.4524 20.1466L15.3484 20.2967L15.2468 20.4466L15.1474 20.5963L15.0505 20.7457L14.9558 20.8947L14.8636 21.0432L14.7738 21.1911L14.6864 21.3383L14.6014 21.4847L14.5189 21.6303L14.4388 21.7748L14.3612 21.9184L14.286 22.0608L14.2132 22.2019L14.1429 22.3418L14.0751 22.4802L14.0097 22.6171L13.9467 22.7524L13.8861 22.886L13.8279 23.0178L13.772 23.1477L13.7185 23.2757L13.6674 23.4017L13.6185 23.5256L13.5719 23.6472L13.5275 23.7666L13.4854 23.8836L13.4454 23.9981L13.4076 24.1102L13.3718 24.2196L13.3381 24.3264L13.3064 24.4304L13.2766 24.5316L13.2488 24.6299L13.2228 24.7253L13.1987 24.8177L13.1763 24.9069L13.1556 24.9931L13.1365 25.076L13.1191 25.1557L13.1031 25.2321L13.0886 25.3051L13.0756 25.3746L13.0638 25.4408L13.0533 25.5034L13.0441 25.5624L13.0359 25.6179L13.0288 25.6697L13.0227 25.7179L13.0175 25.7623L13.0132 25.8031L13.0097 25.84L13.0068 25.8732L13.0046 25.9026L13.0029 25.9281L13.0017 25.9498L13.0009 25.9676L13.0004 25.9815L13.0001 25.9916L13 25.9977L13 26L13 25.9984L12.9999 25.9928L12.9997 25.9834L12.9992 25.9701L12.9984 25.9529L12.9973 25.9318L12.9957 25.9069L12.9935 25.8781L12.9908 25.8456L12.9873 25.8092L12.9831 25.7691L12.9781 25.7252L12.9722 25.6776L12.9652 25.6264L12.9573 25.5715L12.9482 25.513L12.9379 25.451L12.9264 25.3854L12.9135 25.3164L12.8992 25.2439L12.8835 25.1681L12.8663 25.0889L12.8475 25.0065L12.8271 24.9209L12.8049 24.8321L12.7811 24.7402L12.7554 24.6453L12.7279 24.5475L12.6984 24.4467L12.6671 24.3431L12.6337 24.2368L12.5982 24.1278L12.5607 24.0162L12.5211 23.902L12.4793 23.7854L12.4353 23.6664L12.389 23.5451L12.3405 23.4216L12.2897 23.296L12.2366 23.1683L12.1811 23.0386L12.1233 22.9071L12.0631 22.7737L12.0005 22.6387L11.9354 22.5021L11.868 22.3639L11.7981 22.2243L11.7257 22.0834L11.6509 21.9411L11.5737 21.7978L11.494 21.6533L11.4118 21.5079L11.3273 21.3616L11.2402 21.2145L11.1508 21.0668L11.059 20.9184L10.9647 20.7694L10.8681 20.6201L10.7692 20.4704L10.6679 20.3205L10.5643 20.1705L10.4584 20.0204L10.3503 19.8703L10.24 19.7204L10.1276 19.5706L10.013 19.4212L9.89628 19.2721L9.77755 19.1236L9.65681 18.9755L9.53413 18.8281L9.40954 18.6815L9.28311 18.5356L9.15488 18.3907L9.02492 18.2467L8.89328 18.1037L8.76002 17.9619L8.62522 17.8212L8.48892 17.6818L8.3512 17.5438L8.21213 17.4072L8.07178 17.272L7.93022 17.1383L7.78752 17.0063L7.64376 16.8759L7.49902 16.7473L7.35337 16.6204L7.2069 16.4954L7.05969 16.3723L6.91181 16.2511L6.76336 16.1318L6.61441 16.0147L6.46505 15.8996L6.31538 15.7866L6.16547 15.6757L6.01542 15.5671L5.86531 15.4607L5.71524 15.3566L5.56529 15.2548L5.41556 15.1552L5.26614 15.0581L5.11712 14.9633L4.96859 14.8708L4.82065 14.7808L4.67338 14.6932L4.52689 14.6081L4.38126 14.5253L4.23658 14.4451L4.09295 14.3672L3.95046 14.2918L3.80921 14.2189L3.66927 14.1484L3.53075 14.0804L3.39374 14.0148L3.25831 13.9516L3.12457 13.8908L2.9926 13.8324L2.86249 13.7764L2.73433 13.7227L2.60819 13.6713L2.48417 13.6223L2.36234 13.5755L2.24279 13.531L2.1256 13.4886L2.01085 13.4485L1.89861 13.4105L1.78896 13.3745L1.68198 13.3407L1.57773 13.3088L1.4763 13.2789L1.37774 13.2509L1.28213 13.2248L1.18953 13.2005L1.10001 13.178L1.01362 13.1572L0.930428 13.138L0.850489 13.1204L0.773858 13.1043L0.700588 13.0897L0.63073 13.0765L0.564333 13.0647L0.501442 13.0541L0.442101 13.0447L0.386351 13.0365L0.334232 13.0293L0.285778 13.0231L0.241025 13.0179L0.200004 13.0135L0.162742 13.0099L0.129266 13.007L0.0995998 13.0047L0.0737634 13.003L0.0517752 13.0017L0.0336506 13.0009L0.0194021 13.0004L0.00903982 13.0001L0.00257093 13L0 13L0.00132881 12.9999L0.00655644 12.9999L0.0156792 12.9997L0.0286908 12.9992L0.045582 12.9985L0.0663411 12.9974L0.0909535 12.9958L0.119402 12.9937L0.151667 12.991L0.187725 12.9876L0.227552 12.9835L0.27112 12.9785L0.318398 12.9727L0.369354 12.9658L0.423951 12.9579L0.482152 12.9489L0.543917 12.9387L0.609203 12.9273L0.677964 12.9145L0.750152 12.9004L0.825718 12.8848L0.904609 12.8677L0.986772 12.849L1.07215 12.8287L1.16068 12.8067L1.25231 12.783L1.34697 12.7575L1.44459 12.7301L1.54512 12.7008L1.64847 12.6696L1.75459 12.6364L1.8634 12.6011L1.97482 12.5638L2.08878 12.5243L2.2052 12.4827L2.32401 12.4388L2.44512 12.3928L2.56845 12.3444L2.69392 12.2938L2.82145 12.2409L2.95095 12.1856L3.08234 12.128L3.21553 12.068L3.35042 12.0055L3.48694 11.9407L3.62499 11.8734L3.76448 11.8037L3.90533 11.7316L4.04744 11.657L4.19071 11.5799L4.33506 11.5004L4.4804 11.4184L4.62663 11.3341L4.77366 11.2472L4.9214 11.158L5.06975 11.0663L5.21863 10.9723L5.36793 10.8759L5.51757 10.7771L5.66746 10.676L5.8175 10.5726L5.96761 10.4669L6.11768 10.359L6.26765 10.2489L6.41741 10.1366L6.56687 10.0221L6.71596 9.90562L6.86458 9.78704L7.01265 9.66646L7.16009 9.54393L7.3068 9.4195L7.45272 9.29321L7.59776 9.16512L7.74184 9.0353L7.88488 8.90379L8.02681 8.77066L8.16756 8.63597L8.30705 8.49979L8.4452 8.36218L8.58196 8.22321L8.71725 8.08296L8.85101 7.94149L8.98317 7.79888L9.11367 7.65521L9.24246 7.51054L9.36947 7.36496L9.49465 7.21855L9.61794 7.07139L9.7393 6.92357L9.85868 6.77515L9.97603 6.62624L10.0913 6.47692L10.2044 6.32726L10.3154 6.17737L10.4242 6.02733L10.5308 5.87722L10.6351 5.72714L10.7372 5.57718L10.8369 5.42743L10.9342 5.27798L11.0292 5.12892L11.1218 4.98035L11.212 4.83236L11.2998 4.68504L11.3852 4.53848L11.4681 4.39277L11.5486 4.24801L11.6266 4.1043L11.7022 3.96172L11.7753 3.82036L11.846 3.68031L11.9142 3.54168L11.98 3.40454L12.0434 3.26898L12.1044 3.13511L12.163 3.00299L12.2192 2.87273L12.2731 2.74441L12.3246 2.6181L12.3738 2.49391L12.4208 2.3719L12.4655 2.25217L12.508 2.13479L12.5483 2.01984L12.5865 1.90739L12.6226 1.79754L12.6566 1.69034L12.6887 1.58588L12.7187 1.48422L12.7468 1.38543L12.7731 1.28958L12.7975 1.19674L12.8202 1.10697L12.8412 1.02032L12.8605 0.936875L12.8782 0.856675L12.8944 0.779778L12.9091 0.706239L12.9224 0.636107L12.9344 0.569432L12.945 0.50626L12.9545 0.446635L12.9628 0.390597L12.9701 0.338187L12.9763 0.289441L12.9816 0.244392L12.9861 0.203072L12.9898 0.165509L12.9927 0.131731L12.9951 0.101761L12.9968 0.0756184L12.9981 0.0533231L12.999 0.0348903L12.9995 0.0203327L12.9998 0.00966059L13 0.00288145L13 0L13 0.00101826L13 0.00593553L13.0002 0.0147484L13.0007 0.0274506L13.0014 0.0440333L13.0025 0.0644849L13.004 0.0887911L13.006 0.116935L13.0087 0.148897L13.012 0.184654L13.0161 0.224182L13.021 0.267453L13.0268 0.314437L13.0335 0.365101L13.0413 0.41941L13.0502 0.477326L13.0603 0.538809L13.0717 0.603816L13.0843 0.672302L13.0984 0.744219L13.1138 0.819518L13.1308 0.898147L13.1493 0.980051L13.1695 1.06517L13.1914 1.15346L13.215 1.24484L13.2403 1.33926L13.2676 1.43665L13.2967 1.53695L13.3278 1.64008L13.3608 1.74598L13.3959 1.85458L13.4331 1.96579L13.4724 2.07956L13.5139 2.19579L13.5575 2.31441L13.6034 2.43534L13.6516 2.5585L13.702 2.6838L13.7547 2.81117L13.8098 2.94052L13.8673 3.07176L13.9271 3.2048L13.9893 3.33957L14.054 3.47596L14.1211 3.61389L14.1906 3.75327L14.2625 3.89402L14.3369 4.03603L14.4138 4.17921L14.4931 4.32348L14.5749 4.46875L14.6591 4.61491L14.7457 4.76188L14.8347 4.90956L14.9262 5.05787L15.0201 5.20671L15.1163 5.35598L15.2149 5.5056L15.3158 5.65547L15.419 5.8055L15.5245 5.95561L15.6322 6.10569L15.7422 6.25567L15.8543 6.40545L15.9686 6.55494L16.0849 6.70406L16.2034 6.85272L16.3238 7.00084L16.4462 7.14833L16.5704 7.29511L16.6966 7.44109L16.8245 7.5862L16.9542 7.73036L17.0856 7.87349L17.2186 8.01552L17.3532 8.15636L17.4892 8.29595L17.6267 8.43421L17.7656 8.57108L17.9057 8.70649L18.0471 8.84038L18.1896 8.97267L18.3332 9.10331L18.4778 9.23223L18.6233 9.35939L18.7697 9.48471L18.9168 9.60816L19.0646 9.72968L19.2129 9.84921L19.3618 9.96672L19.5111 10.0822L19.6607 10.1955L19.8106 10.3067L19.9606 10.4156L20.1107 10.5224L20.2608 10.6269L20.4108 10.7291L20.5606 10.829L20.71 10.9265L20.8591 11.0217L21.0077 11.1145L21.1558 11.2049L21.3032 11.2929L21.4498 11.3784L21.5956 11.4615L21.7404 11.5422L21.8842 11.6204L22.0269 11.6962L22.1683 11.7695L22.3085 11.8404L22.4472 11.9088L22.5845 11.9748L22.7202 12.0384L22.8542 12.0996L22.9865 12.1584L23.1169 12.2148L23.2453 12.2688L23.3718 12.3205L23.4962 12.37L23.6184 12.4171L23.7383 12.462L23.8559 12.5047L23.971 12.5452L24.0836 12.5835L24.1937 12.6198L24.3011 12.654L24.4058 12.6862L24.5077 12.7164L24.6067 12.7446L24.7028 12.771L24.7959 12.7956L24.8859 12.8184L24.9728 12.8395L25.0565 12.859L25.137 12.8768L25.2141 12.8931L25.2879 12.908L25.3583 12.9214L25.4253 12.9334L25.4887 12.9442L25.5486 12.9538L25.605 12.9622L25.6577 12.9695L25.7067 12.9758L25.752 12.9812L25.7937 12.9857L25.8315 12.9895L25.8656 12.9925L25.8959 12.9949L25.9223 12.9967L25.9449 12.998L25.9637 12.9989L25.9785 12.9995L25.9895 12.9998L25.9966 12.9999L25.9998 12.9999L26 13Z" fill="#696969"/>
</svg>
